<?xml version="1.0" encoding="UTF-8"?>
<svg xmlns="http://www.w3.org/2000/svg" width="480" height="320" viewBox="0 0 480 320">
<defs>
<clipPath id="c1"><path d="M42.406,32.8 L464.942,32.8 L464.942,288.825 L42.406,288.825 Z"/></clipPath>
</defs>
<path d="M0,0 L480,0 L480,320 L0,320 Z" fill="#ffffff"/>
<polyline fill="none" points="42.406,32.8 42.406,288.825" stroke="#dddddd"/>
<polyline fill="none" points="120.653,32.8 120.653,288.825" stroke="#dddddd"/>
<polyline fill="none" points="198.901,32.8 198.901,288.825" stroke="#dddddd"/>
<polyline fill="none" points="277.148,32.8 277.148,288.825" stroke="#dddddd"/>
<polyline fill="none" points="355.396,32.8 355.396,288.825" stroke="#dddddd"/>
<polyline fill="none" points="433.643,32.8 433.643,288.825" stroke="#dddddd"/>
<polyline fill="none" points="42.406,288.825 464.942,288.825" stroke="#dddddd"/>
<polyline fill="none" points="42.406,224.819 464.942,224.819" stroke="#dddddd"/>
<polyline fill="none" points="42.406,160.812 464.942,160.812" stroke="#dddddd"/>
<polyline fill="none" points="42.406,96.806 464.942,96.806" stroke="#dddddd"/>
<polyline fill="none" points="42.406,32.8 464.942,32.8" stroke="#dddddd"/>
<polyline fill="none" points="42.406,288.825 464.942,288.825" stroke="#333333"/>
<polyline fill="none" points="42.406,32.8 42.406,288.825" stroke="#333333"/>
<polyline fill="none" points="42.406,288.825 42.406,293.825" stroke="#333333"/>
<text x="42.406" y="297.825" font-family="sans-serif" font-size="11" text-anchor="middle" dominant-baseline="hanging" fill="#555555">0</text>
<polyline fill="none" points="120.653,288.825 120.653,293.825" stroke="#333333"/>
<text x="120.653" y="297.825" font-family="sans-serif" font-size="11" text-anchor="middle" dominant-baseline="hanging" fill="#555555">1</text>
<polyline fill="none" points="198.901,288.825 198.901,293.825" stroke="#333333"/>
<text x="198.901" y="297.825" font-family="sans-serif" font-size="11" text-anchor="middle" dominant-baseline="hanging" fill="#555555">2</text>
<polyline fill="none" points="277.148,288.825 277.148,293.825" stroke="#333333"/>
<text x="277.148" y="297.825" font-family="sans-serif" font-size="11" text-anchor="middle" dominant-baseline="hanging" fill="#555555">3</text>
<polyline fill="none" points="355.396,288.825 355.396,293.825" stroke="#333333"/>
<text x="355.396" y="297.825" font-family="sans-serif" font-size="11" text-anchor="middle" dominant-baseline="hanging" fill="#555555">4</text>
<polyline fill="none" points="433.643,288.825 433.643,293.825" stroke="#333333"/>
<text x="433.643" y="297.825" font-family="sans-serif" font-size="11" text-anchor="middle" dominant-baseline="hanging" fill="#555555">5</text>
<polyline fill="none" points="37.406,288.825 42.406,288.825" stroke="#333333"/>
<text x="33.406" y="288.825" font-family="sans-serif" font-size="11" text-anchor="end" dominant-baseline="central" fill="#555555">0.0</text>
<polyline fill="none" points="37.406,224.819 42.406,224.819" stroke="#333333"/>
<text x="33.406" y="224.819" font-family="sans-serif" font-size="11" text-anchor="end" dominant-baseline="central" fill="#555555">2.5</text>
<polyline fill="none" points="37.406,160.812 42.406,160.812" stroke="#333333"/>
<text x="33.406" y="160.812" font-family="sans-serif" font-size="11" text-anchor="end" dominant-baseline="central" fill="#555555">5.0</text>
<polyline fill="none" points="37.406,96.806 42.406,96.806" stroke="#333333"/>
<text x="33.406" y="96.806" font-family="sans-serif" font-size="11" text-anchor="end" dominant-baseline="central" fill="#555555">7.5</text>
<polyline fill="none" points="37.406,32.8 42.406,32.8" stroke="#333333"/>
<text x="33.406" y="32.8" font-family="sans-serif" font-size="11" text-anchor="end" dominant-baseline="central" fill="#555555">10.0</text>
<text x="253.674" y="23.488" font-family="sans-serif" font-size="16" text-anchor="middle" fill="#1a1a1a">Bars</text>
<g clip-path="url(#c1)">
<path d="M89.354,212.018 L151.952,212.018 L151.952,288.825 L89.354,288.825 Z M167.602,109.607 L230.2,109.607 L230.2,288.825 L167.602,288.825 Z M245.849,186.415 L308.447,186.415 L308.447,288.825 L245.849,288.825 Z M324.097,58.402 L386.695,58.402 L386.695,288.825 L324.097,288.825 Z M402.344,135.21 L464.942,135.21 L464.942,288.825 L402.344,288.825 Z" fill="#009e73"/>
</g>
</svg>