<?xml version="1.0" encoding="UTF-8"?>
<svg xmlns="http://www.w3.org/2000/svg" width="640" height="320" viewBox="0 0 640 320" role="img" aria-labelledby="refract-title">
<title id="refract-title">Overlays</title>
<defs>
<clipPath id="c1"><path d="M50.332,32.8 L624.942,32.8 L624.942,271.725 L50.332,271.725 Z"/></clipPath>
<path id="m2" d="M3.5,0 C3.5,1.933 1.933,3.5 0,3.5 C-1.933,3.5 -3.5,1.933 -3.5,0 C-3.5,-1.933 -1.933,-3.5 0,-3.5 C1.933,-3.5 3.5,-1.933 3.5,0 Z" fill="#0072b2"/>
<clipPath id="c3"><path d="M50.332,32.8 L624.942,32.8 L624.942,271.725 L50.332,271.725 Z"/></clipPath>
</defs>
<path d="M0,0 L640,0 L640,320 L0,320 Z" fill="#ffffff"/>
<polyline fill="none" points="50.332,32.8 50.332,271.725" stroke="#dddddd"/>
<polyline fill="none" points="193.984,32.8 193.984,271.725" stroke="#dddddd"/>
<polyline fill="none" points="337.637,32.8 337.637,271.725" stroke="#dddddd"/>
<polyline fill="none" points="481.289,32.8 481.289,271.725" stroke="#dddddd"/>
<polyline fill="none" points="624.942,32.8 624.942,271.725" stroke="#dddddd"/>
<polyline fill="none" points="50.332,271.725 624.942,271.725" stroke="#dddddd"/>
<polyline fill="none" points="50.332,192.083 624.942,192.083" stroke="#dddddd"/>
<polyline fill="none" points="50.332,112.442 624.942,112.442" stroke="#dddddd"/>
<polyline fill="none" points="50.332,32.8 624.942,32.8" stroke="#dddddd"/>
<polyline fill="none" points="50.332,271.725 624.942,271.725" stroke="#333333"/>
<polyline fill="none" points="50.332,32.8 50.332,271.725" stroke="#333333"/>
<polyline fill="none" points="50.332,271.725 50.332,276.725" stroke="#333333"/>
<text x="50.332" y="280.725" font-family="sans-serif" font-size="11" text-anchor="middle" dominant-baseline="hanging" fill="#555555">0</text>
<polyline fill="none" points="193.984,271.725 193.984,276.725" stroke="#333333"/>
<text x="193.984" y="280.725" font-family="sans-serif" font-size="11" text-anchor="middle" dominant-baseline="hanging" fill="#555555">1</text>
<polyline fill="none" points="337.637,271.725 337.637,276.725" stroke="#333333"/>
<text x="337.637" y="280.725" font-family="sans-serif" font-size="11" text-anchor="middle" dominant-baseline="hanging" fill="#555555">2</text>
<polyline fill="none" points="481.289,271.725 481.289,276.725" stroke="#333333"/>
<text x="481.289" y="280.725" font-family="sans-serif" font-size="11" text-anchor="middle" dominant-baseline="hanging" fill="#555555">3</text>
<polyline fill="none" points="624.942,271.725 624.942,276.725" stroke="#333333"/>
<text x="624.942" y="280.725" font-family="sans-serif" font-size="11" text-anchor="middle" dominant-baseline="hanging" fill="#555555">4</text>
<polyline fill="none" points="45.332,271.725 50.332,271.725" stroke="#333333"/>
<text x="41.332" y="271.725" font-family="sans-serif" font-size="11" text-anchor="end" dominant-baseline="central" fill="#555555">0</text>
<polyline fill="none" points="45.332,192.083 50.332,192.083" stroke="#333333"/>
<text x="41.332" y="192.083" font-family="sans-serif" font-size="11" text-anchor="end" dominant-baseline="central" fill="#555555">10</text>
<polyline fill="none" points="45.332,112.442 50.332,112.442" stroke="#333333"/>
<text x="41.332" y="112.442" font-family="sans-serif" font-size="11" text-anchor="end" dominant-baseline="central" fill="#555555">20</text>
<polyline fill="none" points="45.332,32.8 50.332,32.8" stroke="#333333"/>
<text x="41.332" y="32.8" font-family="sans-serif" font-size="11" text-anchor="end" dominant-baseline="central" fill="#555555">30</text>
<text x="337.637" y="23.488" font-family="sans-serif" font-size="16" text-anchor="middle" fill="#1a1a1a">Overlays</text>
<text x="337.637" y="305.516" font-family="sans-serif" font-size="12" text-anchor="middle" fill="#333333">x</text>
<text x="20.616" y="152.262" font-family="sans-serif" font-size="12" text-anchor="middle" fill="#333333" transform="rotate(-90 20.616 152.262)">y</text>
<g clip-path="url(#c1)">
<use href="#m2" x="50.332" y="192.083"/>
<use href="#m2" x="193.984" y="80.585"/>
<use href="#m2" x="337.637" y="152.263"/>
<use href="#m2" x="481.289" y="48.728"/>
<use href="#m2" x="624.942" y="120.406"/>
</g>
<path d="M136.523,64.657 L251.445,64.657 L251.445,208.012 L136.523,208.012 Z" fill="#333333" fill-opacity="0.1"/>
<path fill="none" d="M136.523,64.657 L251.445,64.657 L251.445,208.012 L136.523,208.012 Z" stroke="#333333" stroke-opacity="0.55"/>
<g clip-path="url(#c3)">
<polyline fill="none" points="337.637,32.8 337.637,271.725" stroke="#333333" stroke-opacity="0.55"/>
<polyline fill="none" points="50.332,152.263 624.942,152.263" stroke="#333333" stroke-opacity="0.55"/>
</g>
<path fill="none" d="M337.637,146.263 C340.951,146.263 343.637,148.949 343.637,152.263 C343.637,155.576 340.951,158.263 337.637,158.263 C334.323,158.263 331.637,155.576 331.637,152.263 C331.637,148.949 334.323,146.263 337.637,146.263 Z" stroke="#333333" stroke-width="2"/>
<path d="M349.637,164.263 L385.485,164.263 L385.485,196.613 L349.637,196.613 Z" fill="#ffffff"/>
<path fill="none" d="M349.637,164.263 L385.485,164.263 L385.485,196.613 L349.637,196.613 Z" stroke="#333333" stroke-opacity="0.55"/>
<text x="355.637" y="178.161" font-family="sans-serif" font-size="11" fill="#333333">x: 2</text>
<text x="355.637" y="188.336" font-family="sans-serif" font-size="11" fill="#333333">y: 15</text>
</svg>