<?xml version="1.0" encoding="UTF-8"?>
<svg xmlns="http://www.w3.org/2000/svg" width="640" height="400" viewBox="0 0 640 400" role="img" aria-labelledby="refract-title">
<title id="refract-title">Line 3</title>
<defs>
<clipPath id="c1"><path d="M58.89,32.8 L624.942,32.8 L624.942,308.825 L58.89,308.825 Z"/></clipPath>
<clipPath id="c2"><path d="M58.89,320.825 L624.942,320.825 L624.942,368.825 L58.89,368.825 Z"/></clipPath>
</defs>
<path d="M0,0 L640,0 L640,400 L0,400 Z" fill="#ffffff"/>
<polyline fill="none" points="58.89,32.8 58.89,308.825" stroke="#dddddd"/>
<polyline fill="none" points="200.403,32.8 200.403,308.825" stroke="#dddddd"/>
<polyline fill="none" points="341.916,32.8 341.916,308.825" stroke="#dddddd"/>
<polyline fill="none" points="483.429,32.8 483.429,308.825" stroke="#dddddd"/>
<polyline fill="none" points="624.942,32.8 624.942,308.825" stroke="#dddddd"/>
<polyline fill="none" points="58.89,302.253 624.942,302.253" stroke="#dddddd"/>
<polyline fill="none" points="58.89,236.533 624.942,236.533" stroke="#dddddd"/>
<polyline fill="none" points="58.89,170.812 624.942,170.812" stroke="#dddddd"/>
<polyline fill="none" points="58.89,105.092 624.942,105.092" stroke="#dddddd"/>
<polyline fill="none" points="58.89,39.372 624.942,39.372" stroke="#dddddd"/>
<polyline fill="none" points="58.89,308.825 624.942,308.825" stroke="#333333"/>
<polyline fill="none" points="58.89,32.8 58.89,308.825" stroke="#333333"/>
<polyline fill="none" points="58.89,308.825 58.89,313.825" stroke="#333333"/>
<polyline fill="none" points="200.403,308.825 200.403,313.825" stroke="#333333"/>
<polyline fill="none" points="341.916,308.825 341.916,313.825" stroke="#333333"/>
<polyline fill="none" points="483.429,308.825 483.429,313.825" stroke="#333333"/>
<polyline fill="none" points="624.942,308.825 624.942,313.825" stroke="#333333"/>
<polyline fill="none" points="53.89,302.253 58.89,302.253" stroke="#333333"/>
<text x="49.89" y="302.253" font-family="sans-serif" font-size="11" text-anchor="end" dominant-baseline="central" fill="#555555">40</text>
<polyline fill="none" points="53.89,236.533 58.89,236.533" stroke="#333333"/>
<text x="49.89" y="236.533" font-family="sans-serif" font-size="11" text-anchor="end" dominant-baseline="central" fill="#555555">60</text>
<polyline fill="none" points="53.89,170.812 58.89,170.812" stroke="#333333"/>
<text x="49.89" y="170.812" font-family="sans-serif" font-size="11" text-anchor="end" dominant-baseline="central" fill="#555555">80</text>
<polyline fill="none" points="53.89,105.092 58.89,105.092" stroke="#333333"/>
<text x="49.89" y="105.092" font-family="sans-serif" font-size="11" text-anchor="end" dominant-baseline="central" fill="#555555">100</text>
<polyline fill="none" points="53.89,39.372 58.89,39.372" stroke="#333333"/>
<text x="49.89" y="39.372" font-family="sans-serif" font-size="11" text-anchor="end" dominant-baseline="central" fill="#555555">120</text>
<polyline fill="none" points="58.89,368.825 624.942,368.825" stroke="#333333"/>
<polyline fill="none" points="58.89,320.825 58.89,368.825" stroke="#333333"/>
<polyline fill="none" points="58.89,368.825 58.89,373.825" stroke="#333333"/>
<text x="58.89" y="377.825" font-family="sans-serif" font-size="11" text-anchor="middle" dominant-baseline="hanging" fill="#555555">0</text>
<polyline fill="none" points="200.403,368.825 200.403,373.825" stroke="#333333"/>
<text x="200.403" y="377.825" font-family="sans-serif" font-size="11" text-anchor="middle" dominant-baseline="hanging" fill="#555555">2</text>
<polyline fill="none" points="341.916,368.825 341.916,373.825" stroke="#333333"/>
<text x="341.916" y="377.825" font-family="sans-serif" font-size="11" text-anchor="middle" dominant-baseline="hanging" fill="#555555">4</text>
<polyline fill="none" points="483.429,368.825 483.429,373.825" stroke="#333333"/>
<text x="483.429" y="377.825" font-family="sans-serif" font-size="11" text-anchor="middle" dominant-baseline="hanging" fill="#555555">6</text>
<polyline fill="none" points="624.942,368.825 624.942,373.825" stroke="#333333"/>
<text x="624.942" y="377.825" font-family="sans-serif" font-size="11" text-anchor="middle" dominant-baseline="hanging" fill="#555555">8</text>
<polyline fill="none" points="53.89,356.825 58.89,356.825" stroke="#333333"/>
<text x="49.89" y="356.825" font-family="sans-serif" font-size="11" text-anchor="end" dominant-baseline="central" fill="#555555">run</text>
<polyline fill="none" points="53.89,332.825 58.89,332.825" stroke="#333333"/>
<text x="49.89" y="332.825" font-family="sans-serif" font-size="11" text-anchor="end" dominant-baseline="central" fill="#555555">fault</text>
<text x="341.916" y="23.488" font-family="sans-serif" font-size="16" text-anchor="middle" fill="#1a1a1a">Line 3</text>
<text x="20.616" y="200.812" font-family="sans-serif" font-size="12" text-anchor="middle" fill="#333333" transform="rotate(-90 20.616 200.812)">m/min</text>
<g clip-path="url(#c1)">
<polyline fill="none" points="58.89,39.372 129.647,45.944 200.403,36.086 271.16,302.253 341.916,308.825 412.673,42.658 483.429,32.8 554.186,39.372" stroke="#0072b2" stroke-width="1.75" stroke-linecap="round" stroke-linejoin="round"/>
</g>
<g clip-path="url(#c2)">
<path d="M58.89,347.225 L271.16,347.225 L271.16,366.425 L58.89,366.425 Z M412.673,347.225 L624.942,347.225 L624.942,366.425 L412.673,366.425 Z" fill="#0072b2"/>
<path d="M271.16,323.225 L412.673,323.225 L412.673,342.425 L271.16,342.425 Z" fill="#d55e00"/>
</g>
</svg>