<?xml version="1.0" encoding="UTF-8"?><svg xmlns="http://www.w3.org/2000/svg" width="700" height="400" viewBox="0 0 700 400" role="img" aria-labelledby="refract-title"><title id="refract-title">Latency by cohort</title><defs><clipPath id="c1"><path d="M33.232,32.8 L669.663,32.8 L669.663,368.825 L33.232,368.825 Z"/></clipPath><path id="m2" d="M2.1,0 C2.1,1.16 1.16,2.1 0,2.1 C-1.16,2.1 -2.1,1.16 -2.1,0 C-2.1,-1.16 -1.16,-2.1 0,-2.1 C1.16,-2.1 2.1,-1.16 2.1,0 Z" fill="#0072b2"/></defs><path d="M0,0 L700,0 L700,400 L0,400 Z" fill="#ffffff"/><polyline fill="none" points="33.232,314.627 669.663,314.627" stroke="#dddddd"/><polyline fill="none" points="33.232,206.232 669.663,206.232" stroke="#dddddd"/><polyline fill="none" points="33.232,97.837 669.663,97.837" stroke="#dddddd"/><polyline fill="none" points="33.232,368.825 669.663,368.825" stroke="#333333"/><polyline fill="none" points="33.232,32.8 33.232,368.825" stroke="#333333"/><polyline fill="none" points="139.304,368.825 139.304,373.825" stroke="#333333"/><text x="139.304" y="377.825" font-family="sans-serif" font-size="11" text-anchor="middle" dominant-baseline="hanging" fill="#555555">alpha</text><polyline fill="none" points="351.448,368.825 351.448,373.825" stroke="#333333"/><text x="351.448" y="377.825" font-family="sans-serif" font-size="11" text-anchor="middle" dominant-baseline="hanging" fill="#555555">beta</text><polyline fill="none" points="563.591,368.825 563.591,373.825" stroke="#333333"/><text x="563.591" y="377.825" font-family="sans-serif" font-size="11" text-anchor="middle" dominant-baseline="hanging" fill="#555555">gamma</text><polyline fill="none" points="28.232,314.627 33.232,314.627" stroke="#333333"/><text x="24.232" y="314.627" font-family="sans-serif" font-size="11" text-anchor="end" dominant-baseline="central" fill="#555555">20</text><polyline fill="none" points="28.232,206.232 33.232,206.232" stroke="#333333"/><text x="24.232" y="206.232" font-family="sans-serif" font-size="11" text-anchor="end" dominant-baseline="central" fill="#555555">40</text><polyline fill="none" points="28.232,97.837 33.232,97.837" stroke="#333333"/><text x="24.232" y="97.837" font-family="sans-serif" font-size="11" text-anchor="end" dominant-baseline="central" fill="#555555">60</text><text x="351.448" y="23.488" font-family="sans-serif" font-size="16" text-anchor="middle" fill="#1a1a1a">Latency by cohort</text><g clip-path="url(#c1)"><path d="M54.446,254.607 L224.161,254.607 L224.161,315.824 L54.446,315.824 Z" fill="#0072b2" fill-opacity="0.3"/><path fill="none" d="M54.446,254.607 L224.161,254.607 L224.161,315.824 L54.446,315.824 Z" stroke="#0072b2"/><polyline fill="none" points="54.446,277.758 224.161,277.758" stroke="#0072b2" stroke-width="2"/><polyline fill="none" points="139.304,315.824 139.304,360.971" stroke="#0072b2"/><polyline fill="none" points="96.875,360.971 181.733,360.971" stroke="#0072b2"/><polyline fill="none" points="139.304,254.607 139.304,220.714" stroke="#0072b2"/><polyline fill="none" points="96.875,220.714 181.733,220.714" stroke="#0072b2"/><use href="#m2" x="139.304" y="86.998"/><path d="M266.59,215.795 L436.305,215.795 L436.305,282.606 L266.59,282.606 Z" fill="#0072b2" fill-opacity="0.3"/><path fill="none" d="M266.59,215.795 L436.305,215.795 L436.305,282.606 L266.59,282.606 Z" stroke="#0072b2"/><polyline fill="none" points="266.59,234.087 436.305,234.087" stroke="#0072b2" stroke-width="2"/><polyline fill="none" points="351.448,282.606 351.448,321.545" stroke="#0072b2"/><polyline fill="none" points="309.019,321.545 393.876,321.545" stroke="#0072b2"/><polyline fill="none" points="351.448,215.795 351.448,182.187" stroke="#0072b2"/><polyline fill="none" points="309.019,182.187 393.876,182.187" stroke="#0072b2"/><use href="#m2" x="351.448" y="59.899"/><path d="M478.734,180.58 L648.449,180.58 L648.449,241.308 L478.734,241.308 Z" fill="#0072b2" fill-opacity="0.3"/><path fill="none" d="M478.734,180.58 L648.449,180.58 L648.449,241.308 L478.734,241.308 Z" stroke="#0072b2"/><polyline fill="none" points="478.734,222.184 648.449,222.184" stroke="#0072b2" stroke-width="2"/><polyline fill="none" points="563.591,241.308 563.591,291.493" stroke="#0072b2"/><polyline fill="none" points="521.162,291.493 606.02,291.493" stroke="#0072b2"/><polyline fill="none" points="563.591,180.58 563.591,152.208" stroke="#0072b2"/><polyline fill="none" points="521.162,152.208 606.02,152.208" stroke="#0072b2"/><use href="#m2" x="563.591" y="32.8"/></g></svg>