<?xml version="1.0" encoding="UTF-8"?><svg xmlns="http://www.w3.org/2000/svg" width="700" height="400" viewBox="0 0 700 400" role="img" aria-labelledby="refract-title"><title id="refract-title">Mean latency, with its 95 % interval</title><defs><clipPath id="c1"><path d="M57.069,32.8 L619.988,32.8 L619.988,368.825 L57.069,368.825 Z"/></clipPath><path id="m2" d="M3,0 C3,1.657 1.657,3 0,3 C-1.657,3 -3,1.657 -3,0 C-3,-1.657 -1.657,-3 0,-3 C1.657,-3 3,-1.657 3,0 Z" fill="#0072b2"/></defs><path d="M0,0 L700,0 L700,400 L0,400 Z" fill="#ffffff"/><polyline fill="none" points="57.069,368.825 619.988,368.825" stroke="#dddddd"/><polyline fill="none" points="57.069,301.62 619.988,301.62" stroke="#dddddd"/><polyline fill="none" points="57.069,234.415 619.988,234.415" stroke="#dddddd"/><polyline fill="none" points="57.069,167.21 619.988,167.21" stroke="#dddddd"/><polyline fill="none" points="57.069,100.005 619.988,100.005" stroke="#dddddd"/><polyline fill="none" points="57.069,32.8 619.988,32.8" stroke="#dddddd"/><polyline fill="none" points="57.069,368.825 619.988,368.825" stroke="#333333"/><polyline fill="none" points="57.069,32.8 57.069,368.825" stroke="#333333"/><polyline fill="none" points="113.361,368.825 113.361,373.825" stroke="#333333"/><text x="113.361" y="377.825" font-family="sans-serif" font-size="11" text-anchor="middle" dominant-baseline="hanging" fill="#555555">auth</text><polyline fill="none" points="225.945,368.825 225.945,373.825" stroke="#333333"/><text x="225.945" y="377.825" font-family="sans-serif" font-size="11" text-anchor="middle" dominant-baseline="hanging" fill="#555555">search</text><polyline fill="none" points="338.528,368.825 338.528,373.825" stroke="#333333"/><text x="338.528" y="377.825" font-family="sans-serif" font-size="11" text-anchor="middle" dominant-baseline="hanging" fill="#555555">cart</text><polyline fill="none" points="451.112,368.825 451.112,373.825" stroke="#333333"/><text x="451.112" y="377.825" font-family="sans-serif" font-size="11" text-anchor="middle" dominant-baseline="hanging" fill="#555555">checkout</text><polyline fill="none" points="563.696,368.825 563.696,373.825" stroke="#333333"/><text x="563.696" y="377.825" font-family="sans-serif" font-size="11" text-anchor="middle" dominant-baseline="hanging" fill="#555555">media</text><polyline fill="none" points="52.069,368.825 57.069,368.825" stroke="#333333"/><text x="48.069" y="368.825" font-family="sans-serif" font-size="11" text-anchor="end" dominant-baseline="central" fill="#555555">0 ms</text><polyline fill="none" points="52.069,301.62 57.069,301.62" stroke="#333333"/><text x="48.069" y="301.62" font-family="sans-serif" font-size="11" text-anchor="end" dominant-baseline="central" fill="#555555">50 ms</text><polyline fill="none" points="52.069,234.415 57.069,234.415" stroke="#333333"/><text x="48.069" y="234.415" font-family="sans-serif" font-size="11" text-anchor="end" dominant-baseline="central" fill="#555555">100 ms</text><polyline fill="none" points="52.069,167.21 57.069,167.21" stroke="#333333"/><text x="48.069" y="167.21" font-family="sans-serif" font-size="11" text-anchor="end" dominant-baseline="central" fill="#555555">150 ms</text><polyline fill="none" points="52.069,100.005 57.069,100.005" stroke="#333333"/><text x="48.069" y="100.005" font-family="sans-serif" font-size="11" text-anchor="end" dominant-baseline="central" fill="#555555">200 ms</text><polyline fill="none" points="52.069,32.8 57.069,32.8" stroke="#333333"/><text x="48.069" y="32.8" font-family="sans-serif" font-size="11" text-anchor="end" dominant-baseline="central" fill="#555555">250 ms</text><text x="338.528" y="23.488" font-family="sans-serif" font-size="16" text-anchor="middle" fill="#1a1a1a">Mean latency, with its 95 % interval</text><g clip-path="url(#c1)"><path d="M68.327,312.373 L158.394,312.373 L158.394,368.825 L68.327,368.825 Z M180.911,210.221 L270.978,210.221 L270.978,368.825 L180.911,368.825 Z M293.495,284.147 L383.562,284.147 L383.562,368.825 L293.495,368.825 Z M406.079,246.512 L496.146,246.512 L496.146,368.825 L406.079,368.825 Z M518.663,86.564 L608.73,86.564 L608.73,368.825 L518.663,368.825 Z" fill="#dae1eb"/><polyline fill="none" points="113.361,320.437 113.361,304.308" stroke="#0072b2" stroke-width="1.5"/><polyline fill="none" points="95.347,320.437 131.374,320.437" stroke="#0072b2" stroke-width="1.5"/><polyline fill="none" points="95.347,304.308 131.374,304.308" stroke="#0072b2" stroke-width="1.5"/><polyline fill="none" points="225.945,239.791 225.945,180.651" stroke="#0072b2" stroke-width="1.5"/><polyline fill="none" points="207.931,239.791 243.958,239.791" stroke="#0072b2" stroke-width="1.5"/><polyline fill="none" points="207.931,180.651 243.958,180.651" stroke="#0072b2" stroke-width="1.5"/><polyline fill="none" points="338.528,296.244 338.528,272.05" stroke="#0072b2" stroke-width="1.5"/><polyline fill="none" points="320.515,296.244 356.542,296.244" stroke="#0072b2" stroke-width="1.5"/><polyline fill="none" points="320.515,272.05 356.542,272.05" stroke="#0072b2" stroke-width="1.5"/><polyline fill="none" points="451.112,265.329 451.112,227.695" stroke="#0072b2" stroke-width="1.5"/><polyline fill="none" points="433.099,265.329 469.126,265.329" stroke="#0072b2" stroke-width="1.5"/><polyline fill="none" points="433.099,227.695 469.126,227.695" stroke="#0072b2" stroke-width="1.5"/><polyline fill="none" points="563.696,137.64 563.696,35.488" stroke="#0072b2" stroke-width="1.5"/><polyline fill="none" points="545.683,137.64 581.709,137.64" stroke="#0072b2" stroke-width="1.5"/><polyline fill="none" points="545.683,35.488 581.709,35.488" stroke="#0072b2" stroke-width="1.5"/><use href="#m2" x="113.361" y="312.373"/><use href="#m2" x="225.945" y="210.221"/><use href="#m2" x="338.528" y="284.147"/><use href="#m2" x="451.112" y="246.512"/><use href="#m2" x="563.696" y="86.564"/></g><path d="M633.988,194.812 L645.988,194.812 L645.988,206.812 L633.988,206.812 Z" fill="#dae1eb"/><text x="651.988" y="200.812" font-family="sans-serif" font-size="12" dominant-baseline="central" fill="#333333">mean</text></svg>