<?xml version="1.0" encoding="UTF-8"?><svg xmlns="http://www.w3.org/2000/svg" width="700" height="520" viewBox="0 0 700 520" role="img" aria-labelledby="refract-title"><title id="refract-title">Daily maximum, by month</title><defs><clipPath id="c1"><path d="M41.779,32.8 L681.884,32.8 L681.884,471.725 L41.779,471.725 Z"/></clipPath></defs><path d="M0,0 L700,0 L700,520 L0,520 Z" fill="#ffffff"/><polyline fill="none" points="94.58,32.8 94.58,471.725" stroke="#dddddd"/><polyline fill="none" points="241.406,32.8 241.406,471.725" stroke="#dddddd"/><polyline fill="none" points="388.232,32.8 388.232,471.725" stroke="#dddddd"/><polyline fill="none" points="535.058,32.8 535.058,471.725" stroke="#dddddd"/><polyline fill="none" points="681.884,32.8 681.884,471.725" stroke="#dddddd"/><polyline fill="none" points="41.779,471.725 681.884,471.725" stroke="#333333"/><polyline fill="none" points="41.779,32.8 41.779,471.725" stroke="#333333"/><polyline fill="none" points="94.58,471.725 94.58,476.725" stroke="#333333"/><text x="94.58" y="480.725" font-family="sans-serif" font-size="11" text-anchor="middle" dominant-baseline="hanging" fill="#555555">-10</text><polyline fill="none" points="241.406,471.725 241.406,476.725" stroke="#333333"/><text x="241.406" y="480.725" font-family="sans-serif" font-size="11" text-anchor="middle" dominant-baseline="hanging" fill="#555555">0</text><polyline fill="none" points="388.232,471.725 388.232,476.725" stroke="#333333"/><text x="388.232" y="480.725" font-family="sans-serif" font-size="11" text-anchor="middle" dominant-baseline="hanging" fill="#555555">10</text><polyline fill="none" points="535.058,471.725 535.058,476.725" stroke="#333333"/><text x="535.058" y="480.725" font-family="sans-serif" font-size="11" text-anchor="middle" dominant-baseline="hanging" fill="#555555">20</text><polyline fill="none" points="681.884,471.725 681.884,476.725" stroke="#333333"/><text x="681.884" y="480.725" font-family="sans-serif" font-size="11" text-anchor="middle" dominant-baseline="hanging" fill="#555555">30</text><polyline fill="none" points="36.779,453.436 41.779,453.436" stroke="#333333"/><text x="32.779" y="453.436" font-family="sans-serif" font-size="11" text-anchor="end" dominant-baseline="central" fill="#555555">jan</text><polyline fill="none" points="36.779,416.859 41.779,416.859" stroke="#333333"/><text x="32.779" y="416.859" font-family="sans-serif" font-size="11" text-anchor="end" dominant-baseline="central" fill="#555555">feb</text><polyline fill="none" points="36.779,380.282 41.779,380.282" stroke="#333333"/><text x="32.779" y="380.282" font-family="sans-serif" font-size="11" text-anchor="end" dominant-baseline="central" fill="#555555">mar</text><polyline fill="none" points="36.779,343.705 41.779,343.705" stroke="#333333"/><text x="32.779" y="343.705" font-family="sans-serif" font-size="11" text-anchor="end" dominant-baseline="central" fill="#555555">apr</text><polyline fill="none" points="36.779,307.128 41.779,307.128" stroke="#333333"/><text x="32.779" y="307.128" font-family="sans-serif" font-size="11" text-anchor="end" dominant-baseline="central" fill="#555555">may</text><polyline fill="none" points="36.779,270.551 41.779,270.551" stroke="#333333"/><text x="32.779" y="270.551" font-family="sans-serif" font-size="11" text-anchor="end" dominant-baseline="central" fill="#555555">jun</text><polyline fill="none" points="36.779,233.974 41.779,233.974" stroke="#333333"/><text x="32.779" y="233.974" font-family="sans-serif" font-size="11" text-anchor="end" dominant-baseline="central" fill="#555555">jul</text><polyline fill="none" points="36.779,197.397 41.779,197.397" stroke="#333333"/><text x="32.779" y="197.397" font-family="sans-serif" font-size="11" text-anchor="end" dominant-baseline="central" fill="#555555">aug</text><polyline fill="none" points="36.779,160.82 41.779,160.82" stroke="#333333"/><text x="32.779" y="160.82" font-family="sans-serif" font-size="11" text-anchor="end" dominant-baseline="central" fill="#555555">sep</text><polyline fill="none" points="36.779,124.243 41.779,124.243" stroke="#333333"/><text x="32.779" y="124.243" font-family="sans-serif" font-size="11" text-anchor="end" dominant-baseline="central" fill="#555555">oct</text><polyline fill="none" points="36.779,87.666 41.779,87.666" stroke="#333333"/><text x="32.779" y="87.666" font-family="sans-serif" font-size="11" text-anchor="end" dominant-baseline="central" fill="#555555">nov</text><polyline fill="none" points="36.779,51.089 41.779,51.089" stroke="#333333"/><text x="32.779" y="51.089" font-family="sans-serif" font-size="11" text-anchor="end" dominant-baseline="central" fill="#555555">dec</text><text x="361.831" y="23.488" font-family="sans-serif" font-size="16" text-anchor="middle" fill="#1a1a1a">Daily maximum, by month</text><text x="361.831" y="505.516" font-family="sans-serif" font-size="12" text-anchor="middle" fill="#333333">degrees</text><g clip-path="url(#c1)"><path d="M41.779,51.089 L41.779,50.731 L45.087,50.733 L48.395,50.741 L51.702,50.755 L55.01,50.772 L58.318,50.791 L61.626,50.808 L64.933,50.822 L68.241,50.829 L71.549,50.826 L74.857,50.81 L78.165,50.779 L81.472,50.729 L84.78,50.659 L88.088,50.566 L91.396,50.448 L94.704,50.305 L98.011,50.136 L101.319,49.941 L104.627,49.721 L107.935,49.476 L111.242,49.209 L114.55,48.921 L117.858,48.615 L121.166,48.295 L124.474,47.963 L127.781,47.622 L131.089,47.277 L134.397,46.931 L137.705,46.589 L141.013,46.253 L144.32,45.929 L147.628,45.62 L150.936,45.328 L154.244,45.055 L157.551,44.8 L160.859,44.563 L164.167,44.338 L167.475,44.12 L170.783,43.9 L174.09,43.672 L177.398,43.423 L180.706,43.145 L184.014,42.83 L187.322,42.471 L190.629,42.063 L193.937,41.607 L197.245,41.102 L200.553,40.556 L203.86,39.974 L207.168,39.365 L210.476,38.739 L213.784,38.105 L217.092,37.474 L220.399,36.852 L223.707,36.246 L227.015,35.66 L230.323,35.099 L233.63,34.566 L236.938,34.061 L240.246,33.589 L243.554,33.149 L246.862,32.744 L250.169,32.377 L253.477,32.048 L256.785,31.759 L260.093,31.507 L263.401,31.291 L266.708,31.107 L270.016,30.949 L273.324,30.809 L276.632,30.681 L279.939,30.556 L283.247,30.429 L286.555,30.294 L289.863,30.15 L293.171,29.998 L296.478,29.841 L299.786,29.685 L303.094,29.538 L306.402,29.409 L309.71,29.307 L313.017,29.239 L316.325,29.212 L319.633,29.231 L322.941,29.298 L326.248,29.415 L329.556,29.58 L332.864,29.792 L336.172,30.049 L339.48,30.35 L342.787,30.694 L346.095,31.081 L349.403,31.51 L352.711,31.982 L356.018,32.496 L359.326,33.052 L362.634,33.645 L365.942,34.273 L369.25,34.93 L372.557,35.608 L375.865,36.3 L379.173,36.997 L382.481,37.695 L385.789,38.385 L389.096,39.066 L392.404,39.734 L395.712,40.389 L399.02,41.032 L402.327,41.666 L405.635,42.293 L408.943,42.913 L412.251,43.528 L415.559,44.136 L418.866,44.734 L422.174,45.32 L425.482,45.887 L428.79,46.43 L432.098,46.944 L435.405,47.424 L438.713,47.866 L442.021,48.267 L445.329,48.629 L448.636,48.95 L451.944,49.234 L455.252,49.483 L458.56,49.702 L461.868,49.893 L461.868,51.089 Z" fill="#0072b2" fill-opacity="0.55"/><path fill="none" d="M41.779,50.731 L45.087,50.733 L48.395,50.741 L51.702,50.755 L55.01,50.772 L58.318,50.791 L61.626,50.808 L64.933,50.822 L68.241,50.829 L71.549,50.826 L74.857,50.81 L78.165,50.779 L81.472,50.729 L84.78,50.659 L88.088,50.566 L91.396,50.448 L94.704,50.305 L98.011,50.136 L101.319,49.941 L104.627,49.721 L107.935,49.476 L111.242,49.209 L114.55,48.921 L117.858,48.615 L121.166,48.295 L124.474,47.963 L127.781,47.622 L131.089,47.277 L134.397,46.931 L137.705,46.589 L141.013,46.253 L144.32,45.929 L147.628,45.62 L150.936,45.328 L154.244,45.055 L157.551,44.8 L160.859,44.563 L164.167,44.338 L167.475,44.12 L170.783,43.9 L174.09,43.672 L177.398,43.423 L180.706,43.145 L184.014,42.83 L187.322,42.471 L190.629,42.063 L193.937,41.607 L197.245,41.102 L200.553,40.556 L203.86,39.974 L207.168,39.365 L210.476,38.739 L213.784,38.105 L217.092,37.474 L220.399,36.852 L223.707,36.246 L227.015,35.66 L230.323,35.099 L233.63,34.566 L236.938,34.061 L240.246,33.589 L243.554,33.149 L246.862,32.744 L250.169,32.377 L253.477,32.048 L256.785,31.759 L260.093,31.507 L263.401,31.291 L266.708,31.107 L270.016,30.949 L273.324,30.809 L276.632,30.681 L279.939,30.556 L283.247,30.429 L286.555,30.294 L289.863,30.15 L293.171,29.998 L296.478,29.841 L299.786,29.685 L303.094,29.538 L306.402,29.409 L309.71,29.307 L313.017,29.239 L316.325,29.212 L319.633,29.231 L322.941,29.298 L326.248,29.415 L329.556,29.58 L332.864,29.792 L336.172,30.049 L339.48,30.35 L342.787,30.694 L346.095,31.081 L349.403,31.51 L352.711,31.982 L356.018,32.496 L359.326,33.052 L362.634,33.645 L365.942,34.273 L369.25,34.93 L372.557,35.608 L375.865,36.3 L379.173,36.997 L382.481,37.695 L385.789,38.385 L389.096,39.066 L392.404,39.734 L395.712,40.389 L399.02,41.032 L402.327,41.666 L405.635,42.293 L408.943,42.913 L412.251,43.528 L415.559,44.136 L418.866,44.734 L422.174,45.32 L425.482,45.887 L428.79,46.43 L432.098,46.944 L435.405,47.424 L438.713,47.866 L442.021,48.267 L445.329,48.629 L448.636,48.95 L451.944,49.234 L455.252,49.483 L458.56,49.702 L461.868,49.893" stroke="#0072b2" stroke-width="1.75" stroke-linecap="round" stroke-linejoin="round"/><path d="M176.394,87.666 L176.394,85.952 L178.899,85.823 L181.404,85.698 L183.909,85.577 L186.414,85.457 L188.919,85.336 L191.424,85.21 L193.929,85.078 L196.435,84.935 L198.94,84.78 L201.445,84.609 L203.95,84.422 L206.455,84.22 L208.96,84.001 L211.465,83.769 L213.97,83.524 L216.475,83.268 L218.98,83.005 L221.485,82.734 L223.991,82.457 L226.496,82.173 L229.001,81.88 L231.506,81.574 L234.011,81.252 L236.516,80.908 L239.021,80.537 L241.526,80.133 L244.031,79.692 L246.536,79.211 L249.041,78.687 L251.547,78.12 L254.052,77.513 L256.557,76.868 L259.062,76.192 L261.567,75.492 L264.072,74.775 L266.577,74.049 L269.082,73.323 L271.587,72.603 L274.092,71.896 L276.597,71.206 L279.103,70.537 L281.608,69.892 L284.113,69.271 L286.618,68.675 L289.123,68.104 L291.628,67.558 L294.133,67.037 L296.638,66.541 L299.143,66.071 L301.648,65.629 L304.153,65.217 L306.659,64.838 L309.164,64.492 L311.669,64.183 L314.174,63.912 L316.679,63.677 L319.184,63.478 L321.689,63.312 L324.194,63.175 L326.699,63.063 L329.204,62.968 L331.709,62.885 L334.215,62.808 L336.72,62.73 L339.225,62.648 L341.73,62.557 L344.235,62.455 L346.74,62.343 L349.245,62.222 L351.75,62.094 L354.255,61.964 L356.76,61.837 L359.265,61.72 L361.771,61.618 L364.276,61.539 L366.781,61.488 L369.286,61.473 L371.791,61.499 L374.296,61.572 L376.801,61.696 L379.306,61.876 L381.811,62.115 L384.316,62.417 L386.821,62.783 L389.327,63.216 L391.832,63.714 L394.337,64.276 L396.842,64.902 L399.347,65.587 L401.852,66.326 L404.357,67.114 L406.862,67.944 L409.367,68.809 L411.872,69.699 L414.377,70.607 L416.883,71.524 L419.388,72.441 L421.893,73.351 L424.398,74.248 L426.903,75.124 L429.408,75.976 L431.913,76.797 L434.418,77.586 L436.923,78.339 L439.428,79.054 L441.933,79.729 L444.439,80.364 L446.944,80.958 L449.449,81.51 L451.954,82.02 L454.459,82.489 L456.964,82.918 L459.469,83.309 L461.974,83.662 L464.479,83.981 L466.984,84.269 L469.489,84.528 L471.995,84.762 L474.5,84.975 L477.005,85.169 L479.51,85.349 L482.015,85.518 L484.52,85.678 L487.025,85.831 L489.53,85.979 L492.035,86.124 L494.54,86.265 L494.54,87.666 Z" fill="#0072b2" fill-opacity="0.55"/><path fill="none" d="M176.394,85.952 L178.899,85.823 L181.404,85.698 L183.909,85.577 L186.414,85.457 L188.919,85.336 L191.424,85.21 L193.929,85.078 L196.435,84.935 L198.94,84.78 L201.445,84.609 L203.95,84.422 L206.455,84.22 L208.96,84.001 L211.465,83.769 L213.97,83.524 L216.475,83.268 L218.98,83.005 L221.485,82.734 L223.991,82.457 L226.496,82.173 L229.001,81.88 L231.506,81.574 L234.011,81.252 L236.516,80.908 L239.021,80.537 L241.526,80.133 L244.031,79.692 L246.536,79.211 L249.041,78.687 L251.547,78.12 L254.052,77.513 L256.557,76.868 L259.062,76.192 L261.567,75.492 L264.072,74.775 L266.577,74.049 L269.082,73.323 L271.587,72.603 L274.092,71.896 L276.597,71.206 L279.103,70.537 L281.608,69.892 L284.113,69.271 L286.618,68.675 L289.123,68.104 L291.628,67.558 L294.133,67.037 L296.638,66.541 L299.143,66.071 L301.648,65.629 L304.153,65.217 L306.659,64.838 L309.164,64.492 L311.669,64.183 L314.174,63.912 L316.679,63.677 L319.184,63.478 L321.689,63.312 L324.194,63.175 L326.699,63.063 L329.204,62.968 L331.709,62.885 L334.215,62.808 L336.72,62.73 L339.225,62.648 L341.73,62.557 L344.235,62.455 L346.74,62.343 L349.245,62.222 L351.75,62.094 L354.255,61.964 L356.76,61.837 L359.265,61.72 L361.771,61.618 L364.276,61.539 L366.781,61.488 L369.286,61.473 L371.791,61.499 L374.296,61.572 L376.801,61.696 L379.306,61.876 L381.811,62.115 L384.316,62.417 L386.821,62.783 L389.327,63.216 L391.832,63.714 L394.337,64.276 L396.842,64.902 L399.347,65.587 L401.852,66.326 L404.357,67.114 L406.862,67.944 L409.367,68.809 L411.872,69.699 L414.377,70.607 L416.883,71.524 L419.388,72.441 L421.893,73.351 L424.398,74.248 L426.903,75.124 L429.408,75.976 L431.913,76.797 L434.418,77.586 L436.923,78.339 L439.428,79.054 L441.933,79.729 L444.439,80.364 L446.944,80.958 L449.449,81.51 L451.954,82.02 L454.459,82.489 L456.964,82.918 L459.469,83.309 L461.974,83.662 L464.479,83.981 L466.984,84.269 L469.489,84.528 L471.995,84.762 L474.5,84.975 L477.005,85.169 L479.51,85.349 L482.015,85.518 L484.52,85.678 L487.025,85.831 L489.53,85.979 L492.035,86.124 L494.54,86.265" stroke="#0072b2" stroke-width="1.75" stroke-linecap="round" stroke-linejoin="round"/><path d="M251.02,124.243 L251.02,123.131 L253.487,123.083 L255.955,123.05 L258.423,123.031 L260.89,123.023 L263.358,123.023 L265.826,123.027 L268.293,123.031 L270.761,123.029 L273.229,123.018 L275.696,122.991 L278.164,122.942 L280.632,122.868 L283.099,122.76 L285.567,122.613 L288.034,122.42 L290.502,122.173 L292.97,121.866 L295.437,121.491 L297.905,121.045 L300.373,120.523 L302.84,119.922 L305.308,119.243 L307.776,118.488 L310.243,117.662 L312.711,116.769 L315.179,115.816 L317.646,114.812 L320.114,113.763 L322.582,112.677 L325.049,111.557 L327.517,110.41 L329.985,109.239 L332.452,108.047 L334.92,106.84 L337.388,105.624 L339.855,104.406 L342.323,103.2 L344.791,102.021 L347.258,100.887 L349.726,99.82 L352.194,98.841 L354.661,97.971 L357.129,97.228 L359.596,96.626 L362.064,96.172 L364.532,95.864 L366.999,95.695 L369.467,95.65 L371.935,95.708 L374.402,95.845 L376.87,96.035 L379.338,96.253 L381.805,96.478 L384.273,96.689 L386.741,96.873 L389.208,97.017 L391.676,97.115 L394.144,97.161 L396.611,97.148 L399.079,97.072 L401.547,96.929 L404.014,96.717 L406.482,96.433 L408.95,96.08 L411.417,95.666 L413.885,95.203 L416.353,94.713 L418.82,94.219 L421.288,93.753 L423.755,93.35 L426.223,93.043 L428.691,92.867 L431.158,92.85 L433.626,93.015 L436.094,93.377 L438.561,93.945 L441.029,94.715 L443.497,95.679 L445.964,96.82 L448.432,98.114 L450.9,99.532 L453.367,101.045 L455.835,102.617 L458.303,104.214 L460.77,105.804 L463.238,107.352 L465.706,108.832 L468.173,110.218 L470.641,111.49 L473.109,112.634 L475.576,113.643 L478.044,114.516 L480.512,115.256 L482.979,115.871 L485.447,116.374 L487.915,116.779 L490.382,117.102 L492.85,117.359 L495.317,117.566 L497.785,117.735 L500.253,117.88 L502.72,118.013 L505.188,118.144 L507.656,118.282 L510.123,118.434 L512.591,118.608 L515.059,118.809 L517.526,119.041 L519.994,119.304 L522.462,119.599 L524.929,119.921 L527.397,120.265 L529.865,120.625 L532.332,120.991 L534.8,121.354 L537.268,121.703 L539.735,122.031 L542.203,122.33 L544.671,122.595 L547.138,122.824 L549.606,123.016 L552.074,123.173 L554.541,123.299 L557.009,123.399 L559.477,123.479 L561.944,123.545 L564.412,123.601 L564.412,124.243 Z" fill="#0072b2" fill-opacity="0.55"/><path fill="none" d="M251.02,123.131 L253.487,123.083 L255.955,123.05 L258.423,123.031 L260.89,123.023 L263.358,123.023 L265.826,123.027 L268.293,123.031 L270.761,123.029 L273.229,123.018 L275.696,122.991 L278.164,122.942 L280.632,122.868 L283.099,122.76 L285.567,122.613 L288.034,122.42 L290.502,122.173 L292.97,121.866 L295.437,121.491 L297.905,121.045 L300.373,120.523 L302.84,119.922 L305.308,119.243 L307.776,118.488 L310.243,117.662 L312.711,116.769 L315.179,115.816 L317.646,114.812 L320.114,113.763 L322.582,112.677 L325.049,111.557 L327.517,110.41 L329.985,109.239 L332.452,108.047 L334.92,106.84 L337.388,105.624 L339.855,104.406 L342.323,103.2 L344.791,102.021 L347.258,100.887 L349.726,99.82 L352.194,98.841 L354.661,97.971 L357.129,97.228 L359.596,96.626 L362.064,96.172 L364.532,95.864 L366.999,95.695 L369.467,95.65 L371.935,95.708 L374.402,95.845 L376.87,96.035 L379.338,96.253 L381.805,96.478 L384.273,96.689 L386.741,96.873 L389.208,97.017 L391.676,97.115 L394.144,97.161 L396.611,97.148 L399.079,97.072 L401.547,96.929 L404.014,96.717 L406.482,96.433 L408.95,96.08 L411.417,95.666 L413.885,95.203 L416.353,94.713 L418.82,94.219 L421.288,93.753 L423.755,93.35 L426.223,93.043 L428.691,92.867 L431.158,92.85 L433.626,93.015 L436.094,93.377 L438.561,93.945 L441.029,94.715 L443.497,95.679 L445.964,96.82 L448.432,98.114 L450.9,99.532 L453.367,101.045 L455.835,102.617 L458.303,104.214 L460.77,105.804 L463.238,107.352 L465.706,108.832 L468.173,110.218 L470.641,111.49 L473.109,112.634 L475.576,113.643 L478.044,114.516 L480.512,115.256 L482.979,115.871 L485.447,116.374 L487.915,116.779 L490.382,117.102 L492.85,117.359 L495.317,117.566 L497.785,117.735 L500.253,117.88 L502.72,118.013 L505.188,118.144 L507.656,118.282 L510.123,118.434 L512.591,118.608 L515.059,118.809 L517.526,119.041 L519.994,119.304 L522.462,119.599 L524.929,119.921 L527.397,120.265 L529.865,120.625 L532.332,120.991 L534.8,121.354 L537.268,121.703 L539.735,122.031 L542.203,122.33 L544.671,122.595 L547.138,122.824 L549.606,123.016 L552.074,123.173 L554.541,123.299 L557.009,123.399 L559.477,123.479 L561.944,123.545 L564.412,123.601" stroke="#0072b2" stroke-width="1.75" stroke-linecap="round" stroke-linejoin="round"/><path d="M349.497,160.82 L349.497,158.458 L351.425,158.102 L353.353,157.733 L355.28,157.361 L357.208,156.998 L359.136,156.653 L361.064,156.339 L362.992,156.065 L364.919,155.836 L366.847,155.655 L368.775,155.52 L370.703,155.421 L372.63,155.349 L374.558,155.287 L376.486,155.217 L378.414,155.122 L380.341,154.984 L382.269,154.789 L384.197,154.522 L386.125,154.178 L388.053,153.749 L389.98,153.235 L391.908,152.635 L393.836,151.95 L395.764,151.185 L397.691,150.342 L399.619,149.425 L401.547,148.441 L403.475,147.395 L405.403,146.297 L407.33,145.16 L409.258,143.995 L411.186,142.822 L413.114,141.656 L415.041,140.516 L416.969,139.419 L418.897,138.381 L420.825,137.411 L422.753,136.516 L424.68,135.699 L426.608,134.956 L428.536,134.279 L430.464,133.655 L432.391,133.069 L434.319,132.502 L436.247,131.935 L438.175,131.348 L440.102,130.724 L442.03,130.047 L443.958,129.305 L445.886,128.495 L447.814,127.616 L449.741,126.678 L451.669,125.693 L453.597,124.684 L455.525,123.676 L457.452,122.698 L459.38,121.777 L461.308,120.943 L463.236,120.219 L465.164,119.625 L467.091,119.175 L469.019,118.879 L470.947,118.74 L472.875,118.757 L474.802,118.926 L476.73,119.239 L478.658,119.688 L480.586,120.262 L482.514,120.952 L484.441,121.745 L486.369,122.628 L488.297,123.588 L490.225,124.61 L492.152,125.678 L494.08,126.776 L496.008,127.888 L497.936,128.998 L499.863,130.095 L501.791,131.168 L503.719,132.209 L505.647,133.215 L507.575,134.185 L509.502,135.123 L511.43,136.032 L513.358,136.92 L515.286,137.794 L517.213,138.664 L519.141,139.538 L521.069,140.424 L522.997,141.327 L524.925,142.254 L526.852,143.206 L528.78,144.184 L530.708,145.186 L532.636,146.205 L534.563,147.236 L536.491,148.268 L538.419,149.291 L540.347,150.292 L542.275,151.261 L544.202,152.187 L546.13,153.061 L548.058,153.876 L549.986,154.626 L551.913,155.311 L553.841,155.93 L555.769,156.486 L557.697,156.982 L559.625,157.425 L561.552,157.818 L563.48,158.169 L565.408,158.481 L567.336,158.758 L569.263,159.004 L571.191,159.219 L573.119,159.406 L575.047,159.566 L576.974,159.698 L578.902,159.805 L580.83,159.888 L582.758,159.951 L584.686,159.996 L586.613,160.029 L588.541,160.053 L590.469,160.074 L592.397,160.094 L594.324,160.118 L594.324,160.82 Z" fill="#0072b2" fill-opacity="0.55"/><path fill="none" d="M349.497,158.458 L351.425,158.102 L353.353,157.733 L355.28,157.361 L357.208,156.998 L359.136,156.653 L361.064,156.339 L362.992,156.065 L364.919,155.836 L366.847,155.655 L368.775,155.52 L370.703,155.421 L372.63,155.349 L374.558,155.287 L376.486,155.217 L378.414,155.122 L380.341,154.984 L382.269,154.789 L384.197,154.522 L386.125,154.178 L388.053,153.749 L389.98,153.235 L391.908,152.635 L393.836,151.95 L395.764,151.185 L397.691,150.342 L399.619,149.425 L401.547,148.441 L403.475,147.395 L405.403,146.297 L407.33,145.16 L409.258,143.995 L411.186,142.822 L413.114,141.656 L415.041,140.516 L416.969,139.419 L418.897,138.381 L420.825,137.411 L422.753,136.516 L424.68,135.699 L426.608,134.956 L428.536,134.279 L430.464,133.655 L432.391,133.069 L434.319,132.502 L436.247,131.935 L438.175,131.348 L440.102,130.724 L442.03,130.047 L443.958,129.305 L445.886,128.495 L447.814,127.616 L449.741,126.678 L451.669,125.693 L453.597,124.684 L455.525,123.676 L457.452,122.698 L459.38,121.777 L461.308,120.943 L463.236,120.219 L465.164,119.625 L467.091,119.175 L469.019,118.879 L470.947,118.74 L472.875,118.757 L474.802,118.926 L476.73,119.239 L478.658,119.688 L480.586,120.262 L482.514,120.952 L484.441,121.745 L486.369,122.628 L488.297,123.588 L490.225,124.61 L492.152,125.678 L494.08,126.776 L496.008,127.888 L497.936,128.998 L499.863,130.095 L501.791,131.168 L503.719,132.209 L505.647,133.215 L507.575,134.185 L509.502,135.123 L511.43,136.032 L513.358,136.92 L515.286,137.794 L517.213,138.664 L519.141,139.538 L521.069,140.424 L522.997,141.327 L524.925,142.254 L526.852,143.206 L528.78,144.184 L530.708,145.186 L532.636,146.205 L534.563,147.236 L536.491,148.268 L538.419,149.291 L540.347,150.292 L542.275,151.261 L544.202,152.187 L546.13,153.061 L548.058,153.876 L549.986,154.626 L551.913,155.311 L553.841,155.93 L555.769,156.486 L557.697,156.982 L559.625,157.425 L561.552,157.818 L563.48,158.169 L565.408,158.481 L567.336,158.758 L569.263,159.004 L571.191,159.219 L573.119,159.406 L575.047,159.566 L576.974,159.698 L578.902,159.805 L580.83,159.888 L582.758,159.951 L584.686,159.996 L586.613,160.029 L588.541,160.053 L590.469,160.074 L592.397,160.094 L594.324,160.118" stroke="#0072b2" stroke-width="1.75" stroke-linecap="round" stroke-linejoin="round"/><path d="M429.713,197.397 L429.713,195.853 L431.01,195.711 L432.306,195.559 L433.603,195.395 L434.899,195.214 L436.196,195.011 L437.492,194.779 L438.789,194.513 L440.085,194.204 L441.382,193.847 L442.678,193.434 L443.975,192.96 L445.271,192.42 L446.568,191.809 L447.864,191.128 L449.161,190.375 L450.457,189.552 L451.754,188.662 L453.05,187.711 L454.347,186.705 L455.643,185.652 L456.94,184.559 L458.236,183.434 L459.533,182.286 L460.829,181.12 L462.126,179.944 L463.422,178.761 L464.719,177.574 L466.015,176.387 L467.312,175.199 L468.608,174.012 L469.905,172.824 L471.201,171.635 L472.498,170.447 L473.794,169.259 L475.091,168.074 L476.387,166.896 L477.684,165.73 L478.98,164.582 L480.277,163.46 L481.573,162.372 L482.87,161.326 L484.166,160.332 L485.463,159.395 L486.759,158.522 L488.056,157.717 L489.352,156.981 L490.649,156.314 L491.945,155.714 L493.242,155.178 L494.538,154.7 L495.835,154.276 L497.131,153.904 L498.428,153.582 L499.724,153.309 L501.021,153.089 L502.317,152.926 L503.614,152.826 L504.91,152.798 L506.207,152.847 L507.503,152.979 L508.8,153.195 L510.096,153.492 L511.393,153.862 L512.689,154.291 L513.986,154.759 L515.282,155.24 L516.579,155.707 L517.875,156.129 L519.172,156.476 L520.468,156.724 L521.765,156.851 L523.061,156.844 L524.358,156.698 L525.654,156.418 L526.951,156.017 L528.247,155.518 L529.544,154.946 L530.84,154.334 L532.137,153.717 L533.433,153.126 L534.73,152.595 L536.026,152.149 L537.323,151.812 L538.62,151.601 L539.916,151.529 L541.213,151.604 L542.509,151.831 L543.805,152.212 L545.102,152.746 L546.398,153.433 L547.695,154.271 L548.992,155.258 L550.288,156.391 L551.585,157.665 L552.881,159.074 L554.178,160.611 L555.474,162.263 L556.771,164.017 L558.067,165.854 L559.364,167.753 L560.66,169.692 L561.957,171.645 L563.253,173.586 L564.55,175.49 L565.846,177.332 L567.143,179.091 L568.439,180.748 L569.736,182.286 L571.032,183.694 L572.329,184.965 L573.625,186.095 L574.922,187.086 L576.218,187.942 L577.515,188.672 L578.811,189.287 L580.108,189.802 L581.404,190.232 L582.701,190.594 L583.997,190.906 L585.294,191.183 L586.59,191.443 L587.887,191.696 L589.183,191.956 L590.48,192.229 L591.776,192.52 L593.073,192.832 L594.369,193.163 L594.369,197.397 Z" fill="#0072b2" fill-opacity="0.55"/><path fill="none" d="M429.713,195.853 L431.01,195.711 L432.306,195.559 L433.603,195.395 L434.899,195.214 L436.196,195.011 L437.492,194.779 L438.789,194.513 L440.085,194.204 L441.382,193.847 L442.678,193.434 L443.975,192.96 L445.271,192.42 L446.568,191.809 L447.864,191.128 L449.161,190.375 L450.457,189.552 L451.754,188.662 L453.05,187.711 L454.347,186.705 L455.643,185.652 L456.94,184.559 L458.236,183.434 L459.533,182.286 L460.829,181.12 L462.126,179.944 L463.422,178.761 L464.719,177.574 L466.015,176.387 L467.312,175.199 L468.608,174.012 L469.905,172.824 L471.201,171.635 L472.498,170.447 L473.794,169.259 L475.091,168.074 L476.387,166.896 L477.684,165.73 L478.98,164.582 L480.277,163.46 L481.573,162.372 L482.87,161.326 L484.166,160.332 L485.463,159.395 L486.759,158.522 L488.056,157.717 L489.352,156.981 L490.649,156.314 L491.945,155.714 L493.242,155.178 L494.538,154.7 L495.835,154.276 L497.131,153.904 L498.428,153.582 L499.724,153.309 L501.021,153.089 L502.317,152.926 L503.614,152.826 L504.91,152.798 L506.207,152.847 L507.503,152.979 L508.8,153.195 L510.096,153.492 L511.393,153.862 L512.689,154.291 L513.986,154.759 L515.282,155.24 L516.579,155.707 L517.875,156.129 L519.172,156.476 L520.468,156.724 L521.765,156.851 L523.061,156.844 L524.358,156.698 L525.654,156.418 L526.951,156.017 L528.247,155.518 L529.544,154.946 L530.84,154.334 L532.137,153.717 L533.433,153.126 L534.73,152.595 L536.026,152.149 L537.323,151.812 L538.62,151.601 L539.916,151.529 L541.213,151.604 L542.509,151.831 L543.805,152.212 L545.102,152.746 L546.398,153.433 L547.695,154.271 L548.992,155.258 L550.288,156.391 L551.585,157.665 L552.881,159.074 L554.178,160.611 L555.474,162.263 L556.771,164.017 L558.067,165.854 L559.364,167.753 L560.66,169.692 L561.957,171.645 L563.253,173.586 L564.55,175.49 L565.846,177.332 L567.143,179.091 L568.439,180.748 L569.736,182.286 L571.032,183.694 L572.329,184.965 L573.625,186.095 L574.922,187.086 L576.218,187.942 L577.515,188.672 L578.811,189.287 L580.108,189.802 L581.404,190.232 L582.701,190.594 L583.997,190.906 L585.294,191.183 L586.59,191.443 L587.887,191.696 L589.183,191.956 L590.48,192.229 L591.776,192.52 L593.073,192.832 L594.369,193.163" stroke="#0072b2" stroke-width="1.75" stroke-linecap="round" stroke-linejoin="round"/><path d="M462.493,233.974 L462.493,229.958 L463.826,229.614 L465.158,229.299 L466.49,229.007 L467.822,228.724 L469.155,228.432 L470.487,228.111 L471.819,227.74 L473.151,227.302 L474.484,226.788 L475.816,226.194 L477.148,225.525 L478.48,224.793 L479.813,224.012 L481.145,223.199 L482.477,222.367 L483.81,221.523 L485.142,220.666 L486.474,219.787 L487.806,218.87 L489.139,217.893 L490.471,216.832 L491.803,215.662 L493.135,214.365 L494.468,212.931 L495.8,211.358 L497.132,209.656 L498.464,207.844 L499.797,205.949 L501.129,204.007 L502.461,202.053 L503.794,200.123 L505.126,198.248 L506.458,196.453 L507.79,194.751 L509.123,193.148 L510.455,191.636 L511.787,190.2 L513.119,188.817 L514.452,187.459 L515.784,186.099 L517.116,184.711 L518.448,183.277 L519.781,181.79 L521.113,180.256 L522.445,178.694 L523.778,177.136 L525.11,175.624 L526.442,174.205 L527.774,172.928 L529.107,171.833 L530.439,170.95 L531.771,170.293 L533.103,169.861 L534.436,169.639 L535.768,169.598 L537.1,169.709 L538.432,169.94 L539.765,170.271 L541.097,170.689 L542.429,171.2 L543.761,171.821 L545.094,172.58 L546.426,173.51 L547.758,174.643 L549.091,176.003 L550.423,177.603 L551.755,179.438 L553.087,181.487 L554.42,183.712 L555.752,186.066 L557.084,188.496 L558.416,190.947 L559.749,193.373 L561.081,195.735 L562.413,198.006 L563.745,200.172 L565.078,202.226 L566.41,204.17 L567.742,206.007 L569.074,207.74 L570.407,209.373 L571.739,210.904 L573.071,212.33 L574.404,213.648 L575.736,214.856 L577.068,215.955 L578.4,216.949 L579.733,217.848 L581.065,218.664 L582.397,219.412 L583.729,220.108 L585.062,220.769 L586.394,221.405 L587.726,222.029 L589.058,222.645 L590.391,223.256 L591.723,223.864 L593.055,224.466 L594.388,225.061 L595.72,225.646 L597.052,226.222 L598.384,226.788 L599.717,227.345 L601.049,227.896 L602.381,228.441 L603.713,228.981 L605.046,229.513 L606.378,230.033 L607.71,230.537 L609.042,231.017 L610.375,231.464 L611.707,231.871 L613.039,232.231 L614.371,232.538 L615.704,232.788 L617.036,232.981 L618.368,233.117 L619.701,233.202 L621.033,233.24 L622.365,233.24 L623.697,233.21 L625.03,233.161 L626.362,233.104 L627.694,233.048 L629.026,233.001 L630.359,232.972 L631.691,232.965 L631.691,233.974 Z" fill="#0072b2" fill-opacity="0.55"/><path fill="none" d="M462.493,229.958 L463.826,229.614 L465.158,229.299 L466.49,229.007 L467.822,228.724 L469.155,228.432 L470.487,228.111 L471.819,227.74 L473.151,227.302 L474.484,226.788 L475.816,226.194 L477.148,225.525 L478.48,224.793 L479.813,224.012 L481.145,223.199 L482.477,222.367 L483.81,221.523 L485.142,220.666 L486.474,219.787 L487.806,218.87 L489.139,217.893 L490.471,216.832 L491.803,215.662 L493.135,214.365 L494.468,212.931 L495.8,211.358 L497.132,209.656 L498.464,207.844 L499.797,205.949 L501.129,204.007 L502.461,202.053 L503.794,200.123 L505.126,198.248 L506.458,196.453 L507.79,194.751 L509.123,193.148 L510.455,191.636 L511.787,190.2 L513.119,188.817 L514.452,187.459 L515.784,186.099 L517.116,184.711 L518.448,183.277 L519.781,181.79 L521.113,180.256 L522.445,178.694 L523.778,177.136 L525.11,175.624 L526.442,174.205 L527.774,172.928 L529.107,171.833 L530.439,170.95 L531.771,170.293 L533.103,169.861 L534.436,169.639 L535.768,169.598 L537.1,169.709 L538.432,169.94 L539.765,170.271 L541.097,170.689 L542.429,171.2 L543.761,171.821 L545.094,172.58 L546.426,173.51 L547.758,174.643 L549.091,176.003 L550.423,177.603 L551.755,179.438 L553.087,181.487 L554.42,183.712 L555.752,186.066 L557.084,188.496 L558.416,190.947 L559.749,193.373 L561.081,195.735 L562.413,198.006 L563.745,200.172 L565.078,202.226 L566.41,204.17 L567.742,206.007 L569.074,207.74 L570.407,209.373 L571.739,210.904 L573.071,212.33 L574.404,213.648 L575.736,214.856 L577.068,215.955 L578.4,216.949 L579.733,217.848 L581.065,218.664 L582.397,219.412 L583.729,220.108 L585.062,220.769 L586.394,221.405 L587.726,222.029 L589.058,222.645 L590.391,223.256 L591.723,223.864 L593.055,224.466 L594.388,225.061 L595.72,225.646 L597.052,226.222 L598.384,226.788 L599.717,227.345 L601.049,227.896 L602.381,228.441 L603.713,228.981 L605.046,229.513 L606.378,230.033 L607.71,230.537 L609.042,231.017 L610.375,231.464 L611.707,231.871 L613.039,232.231 L614.371,232.538 L615.704,232.788 L617.036,232.981 L618.368,233.117 L619.701,233.202 L621.033,233.24 L622.365,233.24 L623.697,233.21 L625.03,233.161 L626.362,233.104 L627.694,233.048 L629.026,233.001 L630.359,232.972 L631.691,232.965" stroke="#0072b2" stroke-width="1.75" stroke-linecap="round" stroke-linejoin="round"/><path d="M440.871,270.551 L440.871,266.529 L442.235,266.155 L443.6,265.777 L444.964,265.393 L446.328,265.002 L447.693,264.601 L449.057,264.184 L450.421,263.746 L451.786,263.282 L453.15,262.783 L454.515,262.244 L455.879,261.658 L457.243,261.018 L458.608,260.32 L459.972,259.558 L461.336,258.728 L462.701,257.83 L464.065,256.863 L465.429,255.827 L466.794,254.725 L468.158,253.561 L469.522,252.341 L470.887,251.072 L472.251,249.762 L473.616,248.42 L474.98,247.058 L476.344,245.686 L477.709,244.317 L479.073,242.963 L480.437,241.636 L481.802,240.348 L483.166,239.11 L484.53,237.932 L485.895,236.822 L487.259,235.787 L488.623,234.831 L489.988,233.954 L491.352,233.154 L492.717,232.429 L494.081,231.771 L495.445,231.17 L496.81,230.617 L498.174,230.098 L499.538,229.601 L500.903,229.115 L502.267,228.628 L503.631,228.13 L504.996,227.614 L506.36,227.076 L507.724,226.515 L509.089,225.932 L510.453,225.331 L511.818,224.72 L513.182,224.108 L514.546,223.507 L515.911,222.93 L517.275,222.391 L518.639,221.904 L520.004,221.484 L521.368,221.145 L522.732,220.899 L524.097,220.758 L525.461,220.732 L526.825,220.827 L528.19,221.049 L529.554,221.398 L530.919,221.875 L532.283,222.475 L533.647,223.191 L535.012,224.016 L536.376,224.938 L537.74,225.943 L539.105,227.019 L540.469,228.15 L541.833,229.32 L543.198,230.515 L544.562,231.72 L545.926,232.923 L547.291,234.111 L548.655,235.275 L550.019,236.408 L551.384,237.503 L552.748,238.559 L554.113,239.573 L555.477,240.548 L556.841,241.485 L558.206,242.389 L559.57,243.266 L560.934,244.121 L562.299,244.963 L563.663,245.797 L565.027,246.63 L566.392,247.468 L567.756,248.316 L569.12,249.177 L570.485,250.054 L571.849,250.948 L573.214,251.859 L574.578,252.783 L575.942,253.719 L577.307,254.661 L578.671,255.604 L580.035,256.54 L581.4,257.464 L582.764,258.367 L584.128,259.244 L585.493,260.086 L586.857,260.889 L588.221,261.647 L589.586,262.358 L590.95,263.018 L592.315,263.627 L593.679,264.186 L595.043,264.696 L596.408,265.16 L597.772,265.581 L599.136,265.963 L600.501,266.311 L601.865,266.628 L603.229,266.921 L604.594,267.191 L605.958,267.443 L607.322,267.681 L608.687,267.906 L610.051,268.121 L611.415,268.328 L612.78,268.526 L614.144,268.718 L614.144,270.551 Z" fill="#0072b2" fill-opacity="0.55"/><path fill="none" d="M440.871,266.529 L442.235,266.155 L443.6,265.777 L444.964,265.393 L446.328,265.002 L447.693,264.601 L449.057,264.184 L450.421,263.746 L451.786,263.282 L453.15,262.783 L454.515,262.244 L455.879,261.658 L457.243,261.018 L458.608,260.32 L459.972,259.558 L461.336,258.728 L462.701,257.83 L464.065,256.863 L465.429,255.827 L466.794,254.725 L468.158,253.561 L469.522,252.341 L470.887,251.072 L472.251,249.762 L473.616,248.42 L474.98,247.058 L476.344,245.686 L477.709,244.317 L479.073,242.963 L480.437,241.636 L481.802,240.348 L483.166,239.11 L484.53,237.932 L485.895,236.822 L487.259,235.787 L488.623,234.831 L489.988,233.954 L491.352,233.154 L492.717,232.429 L494.081,231.771 L495.445,231.17 L496.81,230.617 L498.174,230.098 L499.538,229.601 L500.903,229.115 L502.267,228.628 L503.631,228.13 L504.996,227.614 L506.36,227.076 L507.724,226.515 L509.089,225.932 L510.453,225.331 L511.818,224.72 L513.182,224.108 L514.546,223.507 L515.911,222.93 L517.275,222.391 L518.639,221.904 L520.004,221.484 L521.368,221.145 L522.732,220.899 L524.097,220.758 L525.461,220.732 L526.825,220.827 L528.19,221.049 L529.554,221.398 L530.919,221.875 L532.283,222.475 L533.647,223.191 L535.012,224.016 L536.376,224.938 L537.74,225.943 L539.105,227.019 L540.469,228.15 L541.833,229.32 L543.198,230.515 L544.562,231.72 L545.926,232.923 L547.291,234.111 L548.655,235.275 L550.019,236.408 L551.384,237.503 L552.748,238.559 L554.113,239.573 L555.477,240.548 L556.841,241.485 L558.206,242.389 L559.57,243.266 L560.934,244.121 L562.299,244.963 L563.663,245.797 L565.027,246.63 L566.392,247.468 L567.756,248.316 L569.12,249.177 L570.485,250.054 L571.849,250.948 L573.214,251.859 L574.578,252.783 L575.942,253.719 L577.307,254.661 L578.671,255.604 L580.035,256.54 L581.4,257.464 L582.764,258.367 L584.128,259.244 L585.493,260.086 L586.857,260.889 L588.221,261.647 L589.586,262.358 L590.95,263.018 L592.315,263.627 L593.679,264.186 L595.043,264.696 L596.408,265.16 L597.772,265.581 L599.136,265.963 L600.501,266.311 L601.865,266.628 L603.229,266.921 L604.594,267.191 L605.958,267.443 L607.322,267.681 L608.687,267.906 L610.051,268.121 L611.415,268.328 L612.78,268.526 L614.144,268.718" stroke="#0072b2" stroke-width="1.75" stroke-linecap="round" stroke-linejoin="round"/><path d="M364.053,307.128 L364.053,303.668 L365.731,303.257 L367.408,302.829 L369.085,302.39 L370.763,301.94 L372.44,301.482 L374.118,301.019 L375.795,300.551 L377.473,300.079 L379.15,299.602 L380.828,299.119 L382.505,298.627 L384.183,298.123 L385.86,297.604 L387.537,297.067 L389.215,296.508 L390.892,295.923 L392.57,295.31 L394.247,294.668 L395.925,293.994 L397.602,293.288 L399.28,292.55 L400.957,291.781 L402.634,290.982 L404.312,290.155 L405.989,289.303 L407.667,288.429 L409.344,287.537 L411.022,286.633 L412.699,285.721 L414.377,284.808 L416.054,283.904 L417.731,283.015 L419.409,282.153 L421.086,281.327 L422.764,280.548 L424.441,279.826 L426.119,279.171 L427.796,278.591 L429.474,278.093 L431.151,277.682 L432.828,277.359 L434.506,277.126 L436.183,276.977 L437.861,276.909 L439.538,276.911 L441.216,276.974 L442.893,277.085 L444.571,277.231 L446.248,277.397 L447.926,277.567 L449.603,277.727 L451.28,277.864 L452.958,277.963 L454.635,278.014 L456.313,278.007 L457.99,277.936 L459.668,277.796 L461.345,277.585 L463.023,277.305 L464.7,276.959 L466.377,276.553 L468.055,276.096 L469.732,275.598 L471.41,275.071 L473.087,274.527 L474.765,273.979 L476.442,273.442 L478.12,272.928 L479.797,272.45 L481.474,272.02 L483.152,271.649 L484.829,271.346 L486.507,271.119 L488.184,270.976 L489.862,270.922 L491.539,270.96 L493.217,271.093 L494.894,271.322 L496.571,271.646 L498.249,272.062 L499.926,272.567 L501.604,273.155 L503.281,273.822 L504.959,274.56 L506.636,275.363 L508.314,276.222 L509.991,277.131 L511.668,278.081 L513.346,279.067 L515.023,280.081 L516.701,281.116 L518.378,282.167 L520.056,283.228 L521.733,284.292 L523.411,285.356 L525.088,286.413 L526.766,287.459 L528.443,288.49 L530.12,289.501 L531.798,290.49 L533.475,291.453 L535.153,292.39 L536.83,293.297 L538.508,294.174 L540.185,295.021 L541.863,295.836 L543.54,296.62 L545.217,297.371 L546.895,298.089 L548.572,298.771 L550.25,299.416 L551.927,300.023 L553.605,300.588 L555.282,301.11 L556.96,301.589 L558.637,302.022 L560.314,302.412 L561.992,302.759 L563.669,303.066 L565.347,303.338 L567.024,303.578 L568.702,303.793 L570.379,303.988 L572.057,304.169 L573.734,304.34 L575.411,304.507 L577.089,304.674 L577.089,307.128 Z" fill="#0072b2" fill-opacity="0.55"/><path fill="none" d="M364.053,303.668 L365.731,303.257 L367.408,302.829 L369.085,302.39 L370.763,301.94 L372.44,301.482 L374.118,301.019 L375.795,300.551 L377.473,300.079 L379.15,299.602 L380.828,299.119 L382.505,298.627 L384.183,298.123 L385.86,297.604 L387.537,297.067 L389.215,296.508 L390.892,295.923 L392.57,295.31 L394.247,294.668 L395.925,293.994 L397.602,293.288 L399.28,292.55 L400.957,291.781 L402.634,290.982 L404.312,290.155 L405.989,289.303 L407.667,288.429 L409.344,287.537 L411.022,286.633 L412.699,285.721 L414.377,284.808 L416.054,283.904 L417.731,283.015 L419.409,282.153 L421.086,281.327 L422.764,280.548 L424.441,279.826 L426.119,279.171 L427.796,278.591 L429.474,278.093 L431.151,277.682 L432.828,277.359 L434.506,277.126 L436.183,276.977 L437.861,276.909 L439.538,276.911 L441.216,276.974 L442.893,277.085 L444.571,277.231 L446.248,277.397 L447.926,277.567 L449.603,277.727 L451.28,277.864 L452.958,277.963 L454.635,278.014 L456.313,278.007 L457.99,277.936 L459.668,277.796 L461.345,277.585 L463.023,277.305 L464.7,276.959 L466.377,276.553 L468.055,276.096 L469.732,275.598 L471.41,275.071 L473.087,274.527 L474.765,273.979 L476.442,273.442 L478.12,272.928 L479.797,272.45 L481.474,272.02 L483.152,271.649 L484.829,271.346 L486.507,271.119 L488.184,270.976 L489.862,270.922 L491.539,270.96 L493.217,271.093 L494.894,271.322 L496.571,271.646 L498.249,272.062 L499.926,272.567 L501.604,273.155 L503.281,273.822 L504.959,274.56 L506.636,275.363 L508.314,276.222 L509.991,277.131 L511.668,278.081 L513.346,279.067 L515.023,280.081 L516.701,281.116 L518.378,282.167 L520.056,283.228 L521.733,284.292 L523.411,285.356 L525.088,286.413 L526.766,287.459 L528.443,288.49 L530.12,289.501 L531.798,290.49 L533.475,291.453 L535.153,292.39 L536.83,293.297 L538.508,294.174 L540.185,295.021 L541.863,295.836 L543.54,296.62 L545.217,297.371 L546.895,298.089 L548.572,298.771 L550.25,299.416 L551.927,300.023 L553.605,300.588 L555.282,301.11 L556.96,301.589 L558.637,302.022 L560.314,302.412 L561.992,302.759 L563.669,303.066 L565.347,303.338 L567.024,303.578 L568.702,303.793 L570.379,303.988 L572.057,304.169 L573.734,304.34 L575.411,304.507 L577.089,304.674" stroke="#0072b2" stroke-width="1.75" stroke-linecap="round" stroke-linejoin="round"/><path d="M252.379,343.705 L252.379,343.076 L254.619,343.043 L256.859,343.01 L259.1,342.975 L261.34,342.936 L263.58,342.889 L265.821,342.832 L268.061,342.762 L270.301,342.676 L272.541,342.572 L274.782,342.448 L277.022,342.301 L279.262,342.129 L281.503,341.93 L283.743,341.7 L285.983,341.437 L288.223,341.139 L290.464,340.801 L292.704,340.421 L294.944,339.999 L297.184,339.534 L299.425,339.026 L301.665,338.476 L303.905,337.889 L306.146,337.268 L308.386,336.615 L310.626,335.935 L312.866,335.23 L315.107,334.502 L317.347,333.752 L319.587,332.98 L321.828,332.186 L324.068,331.37 L326.308,330.53 L328.548,329.668 L330.789,328.784 L333.029,327.882 L335.269,326.966 L337.51,326.04 L339.75,325.109 L341.99,324.179 L344.23,323.255 L346.471,322.341 L348.711,321.442 L350.951,320.563 L353.192,319.708 L355.432,318.882 L357.672,318.09 L359.912,317.34 L362.153,316.639 L364.393,315.997 L366.633,315.423 L368.874,314.926 L371.114,314.515 L373.354,314.195 L375.594,313.971 L377.835,313.841 L380.075,313.801 L382.315,313.844 L384.556,313.958 L386.796,314.128 L389.036,314.339 L391.276,314.573 L393.517,314.815 L395.757,315.048 L397.997,315.262 L400.237,315.446 L402.478,315.594 L404.718,315.703 L406.958,315.772 L409.199,315.805 L411.439,315.803 L413.679,315.773 L415.919,315.72 L418.16,315.651 L420.4,315.572 L422.64,315.492 L424.881,315.418 L427.121,315.357 L429.361,315.319 L431.601,315.312 L433.842,315.347 L436.082,315.433 L438.322,315.582 L440.563,315.803 L442.803,316.105 L445.043,316.497 L447.283,316.984 L449.524,317.569 L451.764,318.252 L454.004,319.03 L456.245,319.897 L458.485,320.841 L460.725,321.852 L462.965,322.914 L465.206,324.013 L467.446,325.131 L469.686,326.253 L471.927,327.363 L474.167,328.45 L476.407,329.501 L478.647,330.507 L480.888,331.462 L483.128,332.361 L485.368,333.203 L487.609,333.988 L489.849,334.718 L492.089,335.394 L494.329,336.022 L496.57,336.605 L498.81,337.148 L501.05,337.654 L503.291,338.128 L505.531,338.572 L507.771,338.989 L510.011,339.381 L512.252,339.749 L514.492,340.095 L516.732,340.419 L518.973,340.722 L521.213,341.004 L523.453,341.266 L525.693,341.509 L527.934,341.733 L530.174,341.94 L532.414,342.131 L534.654,342.307 L536.895,342.47 L536.895,343.705 Z" fill="#0072b2" fill-opacity="0.55"/><path fill="none" d="M252.379,343.076 L254.619,343.043 L256.859,343.01 L259.1,342.975 L261.34,342.936 L263.58,342.889 L265.821,342.832 L268.061,342.762 L270.301,342.676 L272.541,342.572 L274.782,342.448 L277.022,342.301 L279.262,342.129 L281.503,341.93 L283.743,341.7 L285.983,341.437 L288.223,341.139 L290.464,340.801 L292.704,340.421 L294.944,339.999 L297.184,339.534 L299.425,339.026 L301.665,338.476 L303.905,337.889 L306.146,337.268 L308.386,336.615 L310.626,335.935 L312.866,335.23 L315.107,334.502 L317.347,333.752 L319.587,332.98 L321.828,332.186 L324.068,331.37 L326.308,330.53 L328.548,329.668 L330.789,328.784 L333.029,327.882 L335.269,326.966 L337.51,326.04 L339.75,325.109 L341.99,324.179 L344.23,323.255 L346.471,322.341 L348.711,321.442 L350.951,320.563 L353.192,319.708 L355.432,318.882 L357.672,318.09 L359.912,317.34 L362.153,316.639 L364.393,315.997 L366.633,315.423 L368.874,314.926 L371.114,314.515 L373.354,314.195 L375.594,313.971 L377.835,313.841 L380.075,313.801 L382.315,313.844 L384.556,313.958 L386.796,314.128 L389.036,314.339 L391.276,314.573 L393.517,314.815 L395.757,315.048 L397.997,315.262 L400.237,315.446 L402.478,315.594 L404.718,315.703 L406.958,315.772 L409.199,315.805 L411.439,315.803 L413.679,315.773 L415.919,315.72 L418.16,315.651 L420.4,315.572 L422.64,315.492 L424.881,315.418 L427.121,315.357 L429.361,315.319 L431.601,315.312 L433.842,315.347 L436.082,315.433 L438.322,315.582 L440.563,315.803 L442.803,316.105 L445.043,316.497 L447.283,316.984 L449.524,317.569 L451.764,318.252 L454.004,319.03 L456.245,319.897 L458.485,320.841 L460.725,321.852 L462.965,322.914 L465.206,324.013 L467.446,325.131 L469.686,326.253 L471.927,327.363 L474.167,328.45 L476.407,329.501 L478.647,330.507 L480.888,331.462 L483.128,332.361 L485.368,333.203 L487.609,333.988 L489.849,334.718 L492.089,335.394 L494.329,336.022 L496.57,336.605 L498.81,337.148 L501.05,337.654 L503.291,338.128 L505.531,338.572 L507.771,338.989 L510.011,339.381 L512.252,339.749 L514.492,340.095 L516.732,340.419 L518.973,340.722 L521.213,341.004 L523.453,341.266 L525.693,341.509 L527.934,341.733 L530.174,341.94 L532.414,342.131 L534.654,342.307 L536.895,342.47" stroke="#0072b2" stroke-width="1.75" stroke-linecap="round" stroke-linejoin="round"/><path d="M180.965,380.282 L180.965,378.668 L183.413,378.459 L185.86,378.236 L188.307,377.998 L190.755,377.748 L193.202,377.485 L195.65,377.21 L198.097,376.922 L200.544,376.623 L202.992,376.313 L205.439,375.99 L207.887,375.657 L210.334,375.311 L212.781,374.953 L215.229,374.582 L217.676,374.199 L220.124,373.801 L222.571,373.39 L225.018,372.964 L227.466,372.523 L229.913,372.067 L232.361,371.597 L234.808,371.111 L237.255,370.611 L239.703,370.097 L242.15,369.569 L244.598,369.029 L247.045,368.477 L249.492,367.914 L251.94,367.341 L254.387,366.759 L256.835,366.169 L259.282,365.573 L261.729,364.972 L264.177,364.367 L266.624,363.762 L269.072,363.157 L271.519,362.555 L273.966,361.957 L276.414,361.367 L278.861,360.786 L281.309,360.216 L283.756,359.66 L286.203,359.118 L288.651,358.592 L291.098,358.085 L293.546,357.598 L295.993,357.133 L298.44,356.691 L300.888,356.275 L303.335,355.886 L305.783,355.528 L308.23,355.202 L310.677,354.909 L313.125,354.652 L315.572,354.43 L318.02,354.245 L320.467,354.095 L322.914,353.979 L325.362,353.896 L327.809,353.844 L330.257,353.821 L332.704,353.826 L335.151,353.858 L337.599,353.915 L340.046,354 L342.494,354.113 L344.941,354.257 L347.388,354.434 L349.836,354.647 L352.283,354.9 L354.731,355.195 L357.178,355.532 L359.625,355.913 L362.073,356.334 L364.52,356.793 L366.968,357.285 L369.415,357.804 L371.862,358.344 L374.31,358.897 L376.757,359.457 L379.205,360.019 L381.652,360.577 L384.099,361.128 L386.547,361.671 L388.994,362.206 L391.442,362.733 L393.889,363.254 L396.336,363.773 L398.784,364.289 L401.231,364.807 L403.679,365.326 L406.126,365.845 L408.573,366.364 L411.021,366.88 L413.468,367.389 L415.916,367.889 L418.363,368.374 L420.81,368.843 L423.258,369.292 L425.705,369.72 L428.153,370.128 L430.6,370.517 L433.047,370.889 L435.495,371.248 L437.942,371.598 L440.39,371.943 L442.837,372.288 L445.284,372.635 L447.732,372.988 L450.179,373.347 L452.627,373.712 L455.074,374.082 L457.521,374.455 L459.969,374.828 L462.416,375.197 L464.864,375.559 L467.311,375.911 L469.758,376.25 L472.206,376.573 L474.653,376.879 L477.1,377.168 L479.548,377.439 L481.995,377.693 L484.443,377.931 L486.89,378.153 L489.337,378.362 L491.785,378.558 L491.785,380.282 Z" fill="#0072b2" fill-opacity="0.55"/><path fill="none" d="M180.965,378.668 L183.413,378.459 L185.86,378.236 L188.307,377.998 L190.755,377.748 L193.202,377.485 L195.65,377.21 L198.097,376.922 L200.544,376.623 L202.992,376.313 L205.439,375.99 L207.887,375.657 L210.334,375.311 L212.781,374.953 L215.229,374.582 L217.676,374.199 L220.124,373.801 L222.571,373.39 L225.018,372.964 L227.466,372.523 L229.913,372.067 L232.361,371.597 L234.808,371.111 L237.255,370.611 L239.703,370.097 L242.15,369.569 L244.598,369.029 L247.045,368.477 L249.492,367.914 L251.94,367.341 L254.387,366.759 L256.835,366.169 L259.282,365.573 L261.729,364.972 L264.177,364.367 L266.624,363.762 L269.072,363.157 L271.519,362.555 L273.966,361.957 L276.414,361.367 L278.861,360.786 L281.309,360.216 L283.756,359.66 L286.203,359.118 L288.651,358.592 L291.098,358.085 L293.546,357.598 L295.993,357.133 L298.44,356.691 L300.888,356.275 L303.335,355.886 L305.783,355.528 L308.23,355.202 L310.677,354.909 L313.125,354.652 L315.572,354.43 L318.02,354.245 L320.467,354.095 L322.914,353.979 L325.362,353.896 L327.809,353.844 L330.257,353.821 L332.704,353.826 L335.151,353.858 L337.599,353.915 L340.046,354 L342.494,354.113 L344.941,354.257 L347.388,354.434 L349.836,354.647 L352.283,354.9 L354.731,355.195 L357.178,355.532 L359.625,355.913 L362.073,356.334 L364.52,356.793 L366.968,357.285 L369.415,357.804 L371.862,358.344 L374.31,358.897 L376.757,359.457 L379.205,360.019 L381.652,360.577 L384.099,361.128 L386.547,361.671 L388.994,362.206 L391.442,362.733 L393.889,363.254 L396.336,363.773 L398.784,364.289 L401.231,364.807 L403.679,365.326 L406.126,365.845 L408.573,366.364 L411.021,366.88 L413.468,367.389 L415.916,367.889 L418.363,368.374 L420.81,368.843 L423.258,369.292 L425.705,369.72 L428.153,370.128 L430.6,370.517 L433.047,370.889 L435.495,371.248 L437.942,371.598 L440.39,371.943 L442.837,372.288 L445.284,372.635 L447.732,372.988 L450.179,373.347 L452.627,373.712 L455.074,374.082 L457.521,374.455 L459.969,374.828 L462.416,375.197 L464.864,375.559 L467.311,375.911 L469.758,376.25 L472.206,376.573 L474.653,376.879 L477.1,377.168 L479.548,377.439 L481.995,377.693 L484.443,377.931 L486.89,378.153 L489.337,378.362 L491.785,378.558" stroke="#0072b2" stroke-width="1.75" stroke-linecap="round" stroke-linejoin="round"/><path d="M76.649,416.859 L76.649,416.242 L79.935,416.182 L83.222,416.12 L86.509,416.057 L89.795,415.992 L93.082,415.924 L96.369,415.853 L99.655,415.779 L102.942,415.7 L106.228,415.617 L109.515,415.528 L112.802,415.431 L116.088,415.325 L119.375,415.209 L122.662,415.081 L125.948,414.941 L129.235,414.788 L132.522,414.623 L135.808,414.445 L139.095,414.256 L142.382,414.056 L145.668,413.845 L148.955,413.623 L152.241,413.389 L155.528,413.138 L158.815,412.867 L162.101,412.572 L165.388,412.247 L168.675,411.89 L171.961,411.497 L175.248,411.066 L178.535,410.598 L181.821,410.094 L185.108,409.557 L188.395,408.991 L191.681,408.4 L194.968,407.787 L198.254,407.154 L201.541,406.504 L204.828,405.836 L208.114,405.152 L211.401,404.452 L214.688,403.736 L217.974,403.007 L221.261,402.269 L224.548,401.526 L227.834,400.786 L231.121,400.054 L234.407,399.339 L237.694,398.646 L240.981,397.981 L244.267,397.35 L247.554,396.754 L250.841,396.196 L254.127,395.678 L257.414,395.201 L260.701,394.766 L263.987,394.373 L267.274,394.025 L270.561,393.723 L273.847,393.471 L277.134,393.269 L280.42,393.119 L283.707,393.02 L286.994,392.972 L290.28,392.972 L293.567,393.016 L296.854,393.101 L300.14,393.222 L303.427,393.376 L306.714,393.562 L310,393.777 L313.287,394.024 L316.573,394.303 L319.86,394.617 L323.147,394.969 L326.433,395.36 L329.72,395.791 L333.007,396.26 L336.293,396.765 L339.58,397.3 L342.867,397.858 L346.153,398.434 L349.44,399.019 L352.727,399.609 L356.013,400.199 L359.3,400.787 L362.586,401.372 L365.873,401.955 L369.16,402.539 L372.446,403.127 L375.733,403.721 L379.02,404.321 L382.306,404.927 L385.593,405.536 L388.88,406.144 L392.166,406.744 L395.453,407.331 L398.74,407.898 L402.026,408.441 L405.313,408.956 L408.599,409.44 L411.886,409.895 L415.173,410.322 L418.459,410.724 L421.746,411.104 L425.033,411.465 L428.319,411.81 L431.606,412.14 L434.893,412.457 L438.179,412.761 L441.466,413.051 L444.752,413.327 L448.039,413.588 L451.326,413.833 L454.612,414.062 L457.899,414.276 L461.186,414.477 L464.472,414.664 L467.759,414.839 L471.046,415.005 L474.332,415.161 L477.619,415.31 L480.905,415.451 L484.192,415.587 L487.479,415.716 L490.765,415.839 L494.052,415.955 L494.052,416.859 Z" fill="#0072b2" fill-opacity="0.55"/><path fill="none" d="M76.649,416.242 L79.935,416.182 L83.222,416.12 L86.509,416.057 L89.795,415.992 L93.082,415.924 L96.369,415.853 L99.655,415.779 L102.942,415.7 L106.228,415.617 L109.515,415.528 L112.802,415.431 L116.088,415.325 L119.375,415.209 L122.662,415.081 L125.948,414.941 L129.235,414.788 L132.522,414.623 L135.808,414.445 L139.095,414.256 L142.382,414.056 L145.668,413.845 L148.955,413.623 L152.241,413.389 L155.528,413.138 L158.815,412.867 L162.101,412.572 L165.388,412.247 L168.675,411.89 L171.961,411.497 L175.248,411.066 L178.535,410.598 L181.821,410.094 L185.108,409.557 L188.395,408.991 L191.681,408.4 L194.968,407.787 L198.254,407.154 L201.541,406.504 L204.828,405.836 L208.114,405.152 L211.401,404.452 L214.688,403.736 L217.974,403.007 L221.261,402.269 L224.548,401.526 L227.834,400.786 L231.121,400.054 L234.407,399.339 L237.694,398.646 L240.981,397.981 L244.267,397.35 L247.554,396.754 L250.841,396.196 L254.127,395.678 L257.414,395.201 L260.701,394.766 L263.987,394.373 L267.274,394.025 L270.561,393.723 L273.847,393.471 L277.134,393.269 L280.42,393.119 L283.707,393.02 L286.994,392.972 L290.28,392.972 L293.567,393.016 L296.854,393.101 L300.14,393.222 L303.427,393.376 L306.714,393.562 L310,393.777 L313.287,394.024 L316.573,394.303 L319.86,394.617 L323.147,394.969 L326.433,395.36 L329.72,395.791 L333.007,396.26 L336.293,396.765 L339.58,397.3 L342.867,397.858 L346.153,398.434 L349.44,399.019 L352.727,399.609 L356.013,400.199 L359.3,400.787 L362.586,401.372 L365.873,401.955 L369.16,402.539 L372.446,403.127 L375.733,403.721 L379.02,404.321 L382.306,404.927 L385.593,405.536 L388.88,406.144 L392.166,406.744 L395.453,407.331 L398.74,407.898 L402.026,408.441 L405.313,408.956 L408.599,409.44 L411.886,409.895 L415.173,410.322 L418.459,410.724 L421.746,411.104 L425.033,411.465 L428.319,411.81 L431.606,412.14 L434.893,412.457 L438.179,412.761 L441.466,413.051 L444.752,413.327 L448.039,413.588 L451.326,413.833 L454.612,414.062 L457.899,414.276 L461.186,414.477 L464.472,414.664 L467.759,414.839 L471.046,415.005 L474.332,415.161 L477.619,415.31 L480.905,415.451 L484.192,415.587 L487.479,415.716 L490.765,415.839 L494.052,415.955" stroke="#0072b2" stroke-width="1.75" stroke-linecap="round" stroke-linejoin="round"/><path d="M95.258,453.436 L95.258,451.169 L98.097,450.914 L100.936,450.652 L103.775,450.384 L106.614,450.111 L109.453,449.834 L112.292,449.552 L115.13,449.264 L117.969,448.97 L120.808,448.667 L123.647,448.355 L126.486,448.033 L129.325,447.701 L132.164,447.359 L135.003,447.01 L137.841,446.656 L140.68,446.299 L143.519,445.944 L146.358,445.595 L149.197,445.255 L152.036,444.927 L154.875,444.614 L157.714,444.318 L160.552,444.037 L163.391,443.77 L166.23,443.515 L169.069,443.268 L171.908,443.022 L174.747,442.774 L177.586,442.518 L180.425,442.248 L183.263,441.96 L186.102,441.652 L188.941,441.32 L191.78,440.963 L194.619,440.581 L197.458,440.175 L200.297,439.747 L203.136,439.299 L205.974,438.832 L208.813,438.351 L211.652,437.858 L214.491,437.356 L217.33,436.846 L220.169,436.333 L223.008,435.817 L225.846,435.303 L228.685,434.794 L231.524,434.291 L234.363,433.799 L237.202,433.322 L240.041,432.863 L242.88,432.428 L245.719,432.021 L248.557,431.646 L251.396,431.308 L254.235,431.011 L257.074,430.76 L259.913,430.558 L262.752,430.407 L265.591,430.309 L268.43,430.266 L271.268,430.277 L274.107,430.34 L276.946,430.455 L279.785,430.617 L282.624,430.823 L285.463,431.067 L288.302,431.344 L291.141,431.648 L293.979,431.973 L296.818,432.313 L299.657,432.661 L302.496,433.014 L305.335,433.365 L308.174,433.712 L311.013,434.051 L313.852,434.382 L316.69,434.705 L319.529,435.019 L322.368,435.326 L325.207,435.629 L328.046,435.931 L330.885,436.235 L333.724,436.544 L336.563,436.862 L339.401,437.192 L342.24,437.537 L345.079,437.901 L347.918,438.285 L350.757,438.69 L353.596,439.117 L356.435,439.566 L359.273,440.036 L362.112,440.525 L364.951,441.031 L367.79,441.553 L370.629,442.085 L373.468,442.627 L376.307,443.173 L379.146,443.722 L381.984,444.271 L384.823,444.815 L387.662,445.354 L390.501,445.883 L393.34,446.403 L396.179,446.909 L399.018,447.4 L401.857,447.875 L404.695,448.331 L407.534,448.766 L410.373,449.179 L413.212,449.567 L416.051,449.929 L418.89,450.264 L421.729,450.572 L424.568,450.851 L427.406,451.102 L430.245,451.325 L433.084,451.524 L435.923,451.698 L438.762,451.852 L441.601,451.987 L444.44,452.106 L447.279,452.213 L450.117,452.311 L452.956,452.4 L455.795,452.485 L455.795,453.436 Z" fill="#0072b2" fill-opacity="0.55"/><path fill="none" d="M95.258,451.169 L98.097,450.914 L100.936,450.652 L103.775,450.384 L106.614,450.111 L109.453,449.834 L112.292,449.552 L115.13,449.264 L117.969,448.97 L120.808,448.667 L123.647,448.355 L126.486,448.033 L129.325,447.701 L132.164,447.359 L135.003,447.01 L137.841,446.656 L140.68,446.299 L143.519,445.944 L146.358,445.595 L149.197,445.255 L152.036,444.927 L154.875,444.614 L157.714,444.318 L160.552,444.037 L163.391,443.77 L166.23,443.515 L169.069,443.268 L171.908,443.022 L174.747,442.774 L177.586,442.518 L180.425,442.248 L183.263,441.96 L186.102,441.652 L188.941,441.32 L191.78,440.963 L194.619,440.581 L197.458,440.175 L200.297,439.747 L203.136,439.299 L205.974,438.832 L208.813,438.351 L211.652,437.858 L214.491,437.356 L217.33,436.846 L220.169,436.333 L223.008,435.817 L225.846,435.303 L228.685,434.794 L231.524,434.291 L234.363,433.799 L237.202,433.322 L240.041,432.863 L242.88,432.428 L245.719,432.021 L248.557,431.646 L251.396,431.308 L254.235,431.011 L257.074,430.76 L259.913,430.558 L262.752,430.407 L265.591,430.309 L268.43,430.266 L271.268,430.277 L274.107,430.34 L276.946,430.455 L279.785,430.617 L282.624,430.823 L285.463,431.067 L288.302,431.344 L291.141,431.648 L293.979,431.973 L296.818,432.313 L299.657,432.661 L302.496,433.014 L305.335,433.365 L308.174,433.712 L311.013,434.051 L313.852,434.382 L316.69,434.705 L319.529,435.019 L322.368,435.326 L325.207,435.629 L328.046,435.931 L330.885,436.235 L333.724,436.544 L336.563,436.862 L339.401,437.192 L342.24,437.537 L345.079,437.901 L347.918,438.285 L350.757,438.69 L353.596,439.117 L356.435,439.566 L359.273,440.036 L362.112,440.525 L364.951,441.031 L367.79,441.553 L370.629,442.085 L373.468,442.627 L376.307,443.173 L379.146,443.722 L381.984,444.271 L384.823,444.815 L387.662,445.354 L390.501,445.883 L393.34,446.403 L396.179,446.909 L399.018,447.4 L401.857,447.875 L404.695,448.331 L407.534,448.766 L410.373,449.179 L413.212,449.567 L416.051,449.929 L418.89,450.264 L421.729,450.572 L424.568,450.851 L427.406,451.102 L430.245,451.325 L433.084,451.524 L435.923,451.698 L438.762,451.852 L441.601,451.987 L444.44,452.106 L447.279,452.213 L450.117,452.311 L452.956,452.4 L455.795,452.485" stroke="#0072b2" stroke-width="1.75" stroke-linecap="round" stroke-linejoin="round"/></g></svg>