<?xml version="1.0" encoding="UTF-8"?><svg xmlns="http://www.w3.org/2000/svg" width="760" height="420" viewBox="0 0 760 420" role="img" aria-labelledby="refract-title"><title id="refract-title">Revenue and margin</title><defs><clipPath id="c1"><path d="M65.622,32.8 L618.533,32.8 L618.533,388.825 L65.622,388.825 Z"/></clipPath></defs><path d="M0,0 L760,0 L760,420 L0,420 Z" fill="#ffffff"/><polyline fill="none" points="65.622,388.825 618.533,388.825" stroke="#dddddd"/><polyline fill="none" points="65.622,299.819 618.533,299.819" stroke="#dddddd"/><polyline fill="none" points="65.622,210.812 618.533,210.812" stroke="#dddddd"/><polyline fill="none" points="65.622,121.806 618.533,121.806" stroke="#dddddd"/><polyline fill="none" points="65.622,32.8 618.533,32.8" stroke="#dddddd"/><polyline fill="none" points="65.622,388.825 618.533,388.825" stroke="#333333"/><polyline fill="none" points="65.622,32.8 65.622,388.825" stroke="#333333"/><polyline fill="none" points="111.698,388.825 111.698,393.825" stroke="#333333"/><text x="111.698" y="397.825" font-family="sans-serif" font-size="11" text-anchor="middle" dominant-baseline="hanging" fill="#555555">Jan</text><polyline fill="none" points="203.85,388.825 203.85,393.825" stroke="#333333"/><text x="203.85" y="397.825" font-family="sans-serif" font-size="11" text-anchor="middle" dominant-baseline="hanging" fill="#555555">Feb</text><polyline fill="none" points="296.002,388.825 296.002,393.825" stroke="#333333"/><text x="296.002" y="397.825" font-family="sans-serif" font-size="11" text-anchor="middle" dominant-baseline="hanging" fill="#555555">Mar</text><polyline fill="none" points="388.153,388.825 388.153,393.825" stroke="#333333"/><text x="388.153" y="397.825" font-family="sans-serif" font-size="11" text-anchor="middle" dominant-baseline="hanging" fill="#555555">Apr</text><polyline fill="none" points="480.305,388.825 480.305,393.825" stroke="#333333"/><text x="480.305" y="397.825" font-family="sans-serif" font-size="11" text-anchor="middle" dominant-baseline="hanging" fill="#555555">May</text><polyline fill="none" points="572.457,388.825 572.457,393.825" stroke="#333333"/><text x="572.457" y="397.825" font-family="sans-serif" font-size="11" text-anchor="middle" dominant-baseline="hanging" fill="#555555">Jun</text><polyline fill="none" points="60.622,388.825 65.622,388.825" stroke="#333333"/><text x="56.622" y="388.825" font-family="sans-serif" font-size="11" text-anchor="end" dominant-baseline="central" fill="#555555">0</text><polyline fill="none" points="60.622,299.819 65.622,299.819" stroke="#333333"/><text x="56.622" y="299.819" font-family="sans-serif" font-size="11" text-anchor="end" dominant-baseline="central" fill="#555555">300</text><polyline fill="none" points="60.622,210.812 65.622,210.812" stroke="#333333"/><text x="56.622" y="210.812" font-family="sans-serif" font-size="11" text-anchor="end" dominant-baseline="central" fill="#555555">600</text><polyline fill="none" points="60.622,121.806 65.622,121.806" stroke="#333333"/><text x="56.622" y="121.806" font-family="sans-serif" font-size="11" text-anchor="end" dominant-baseline="central" fill="#555555">900</text><polyline fill="none" points="60.622,32.8 65.622,32.8" stroke="#333333"/><text x="56.622" y="32.8" font-family="sans-serif" font-size="11" text-anchor="end" dominant-baseline="central" fill="#555555">1,200</text><polyline fill="none" points="618.533,32.8 618.533,388.825" stroke="#333333"/><polyline fill="none" points="618.533,388.825 623.533,388.825" stroke="#333333"/><text x="627.533" y="388.825" font-family="sans-serif" font-size="11" dominant-baseline="central" fill="#555555">0%</text><polyline fill="none" points="618.533,299.819 623.533,299.819" stroke="#333333"/><text x="627.533" y="299.819" font-family="sans-serif" font-size="11" dominant-baseline="central" fill="#555555">5%</text><polyline fill="none" points="618.533,210.812 623.533,210.812" stroke="#333333"/><text x="627.533" y="210.812" font-family="sans-serif" font-size="11" dominant-baseline="central" fill="#555555">10%</text><polyline fill="none" points="618.533,121.806 623.533,121.806" stroke="#333333"/><text x="627.533" y="121.806" font-family="sans-serif" font-size="11" dominant-baseline="central" fill="#555555">15%</text><polyline fill="none" points="618.533,32.8 623.533,32.8" stroke="#333333"/><text x="627.533" y="32.8" font-family="sans-serif" font-size="11" dominant-baseline="central" fill="#555555">20%</text><text x="342.078" y="23.488" font-family="sans-serif" font-size="16" text-anchor="middle" fill="#1a1a1a">Revenue and margin</text><text x="20.616" y="210.812" font-family="sans-serif" font-size="12" text-anchor="middle" fill="#333333" transform="rotate(-90 20.616 210.812)">revenue (k€)</text><text x="664.16" y="210.812" font-family="sans-serif" font-size="12" text-anchor="middle" fill="#333333" transform="rotate(90 664.16 210.812)">margin</text><g clip-path="url(#c1)"><path d="M74.837,145.541 L148.559,145.541 L148.559,388.825 L74.837,388.825 Z M166.989,118.839 L240.711,118.839 L240.711,388.825 L166.989,388.825 Z M259.141,130.707 L332.862,130.707 L332.862,388.825 L259.141,388.825 Z M351.293,80.27 L425.014,80.27 L425.014,388.825 L351.293,388.825 Z M443.445,38.734 L517.166,38.734 L517.166,388.825 L443.445,388.825 Z M535.596,56.535 L609.318,56.535 L609.318,388.825 L535.596,388.825 Z" fill="#0072b2"/><polyline fill="none" points="111.698,193.011 203.85,157.409 296.002,228.614 388.153,121.806 480.305,68.402 572.457,104.005" stroke="#d55e00" stroke-width="2" stroke-linecap="round" stroke-linejoin="round"/></g><path d="M680.644,196.262 L692.644,196.262 L692.644,208.262 L680.644,208.262 Z" fill="#0072b2"/><text x="698.644" y="202.262" font-family="sans-serif" font-size="12" dominant-baseline="central" fill="#333333">revenue</text><polyline fill="none" points="680.644,219.363 692.644,219.363" stroke="#d55e00" stroke-width="2" stroke-linecap="round"/><text x="698.644" y="219.363" font-family="sans-serif" font-size="12" dominant-baseline="central" fill="#333333">margin</text></svg>